<svg xmlns="http://www.w3.org/2000/svg" xmlns:xlink="http://www.w3.org/1999/xlink" xmlns:inkscape="http://www.inkscape.org/namespaces/inkscape" version="1.1" width="294.802" height="192.757" viewBox="0 0 294.802 192.757">
<defs>
<clipPath id="clip_1">
<path transform="matrix(1,0,0,-1,19.842,96.379009)" d="M-17.00781-93.54497V93.54497H272.1291V-93.54497ZM272.1291 93.54497"/>
</clipPath>
<path id="font_2_3" d="M.23199463 .6696167C.22299195 .6816101 .22200012 .6826172 .20298767 .6826172H.032989503V.6516113H.06199646C.07699585 .6516113 .09700012 .65060427 .11199951 .6496124 .1349945 .64660647 .13598633 .6456146 .13598633 .62661746V.10494995C.13598633 .07795715 .13598633 .0309906 .032989503 .0309906V0C.067993167 .0009918213 .116989139 .0029907227 .1499939 .0029907227 .18299866 .0029907227 .23199463 .0009918213 .2669983 0V.0309906C.1639862 .0309906 .1639862 .07795715 .1639862 .10494995V.62461856C.16899109 .6196289 .16999817 .6186218 .17399597 .6126251L.58200076 .0129852299C.59098818 .0009918213 .59199526 0 .598999 0 .61299136 0 .61299136 .0069885256 .61299136 .025985718V.577652C.61299136 .6046295 .61299136 .6516113 .71598818 .6516113V.6826172C.68099978 .6816101 .6319885 .6796112 .598999 .6796112 .56599429 .6796112 .5169983 .6816101 .48199464 .6826172V.6516113C.58499148 .6516113 .58499148 .6046295 .58499148 .577652V.15092469L.23199463 .6696167Z"/>
<path id="font_2_11" d="M.47099305 .21424866C.47099305 .34223939 .37098695 .4482422 .25 .4482422 .125 .4482422 .027999878 .3392334 .027999878 .21424866 .027999878 .085250858 .13198853-.0107421879 .24899292-.0107421879 .36999513-.0107421879 .47099305 .087249759 .47099305 .21424866M.25 .014251709C.20698548 .014251709 .16299439 .035247804 .13598633 .08125305 .11099243 .12524414 .11099243 .18624878 .11099243 .22224427 .11099243 .26124574 .11099243 .31523133 .1349945 .35923768 .1619873 .40522767 .20899964 .426239 .24899292 .426239 .29299928 .426239 .33599855 .40423585 .3619995 .36123658 .3880005 .3182373 .3880005 .26023866 .3880005 .22224427 .3880005 .18624878 .3880005 .13224793 .3659973 .08824158 .34399415 .04324341 .2999878 .014251709 .25 .014251709Z"/>
<path id="font_2_5" d="M.37998963 .055252077V-.0107421879L.5269928 .00024414063V.03125C.45700074 .03125 .44898988 .038253786 .44898988 .087265018V.69433596L.30499269 .68333438V.6523285C.375 .6523285 .3829956 .6453247 .3829956 .596344V.38035584C.35398866 .41636659 .31098939 .4423828 .25698854 .4423828 .13899231 .4423828 .033996583 .3443451 .033996583 .21531677 .033996583 .088272098 .13198853-.0107421879 .24598694-.0107421879 .30999757-.0107421879 .35499574 .023254395 .37998963 .055252077M.37998963 .323349V.118270877C.37998963 .1002655 .37998963 .0982666 .36898805 .08126831 .33898927 .0332489 .2939911 .011245728 .25099183 .011245728 .20599365 .011245728 .16999817 .037246705 .1459961 .07527161 .11999512 .11627197 .116989139 .17329407 .116989139 .21430969 .116989139 .25131227 .11898804 .31134034 .147995 .35635377 .16899109 .38735963 .20698548 .42037965 .26098634 .42037965 .29599 .42037965 .33799745 .405365 .36898805 .36035157 .37998963 .34335328 .37998963 .34135438 .37998963 .323349Z"/>
<path id="font_2_6" d="M.11199951 .2524414C.117996219 .40126039 .20199585 .426239 .23599243 .426239 .33898927 .426239 .34899903 .2913971 .34899903 .2524414H.11199951M.11099243 .23144531H.3899994C.4119873 .23144531 .4149933 .23144531 .4149933 .2524414 .4149933 .35131837 .36099244 .4482422 .23599243 .4482422 .11999512 .4482422 .027999878 .34532167 .027999878 .22042847 .027999878 .08631897 .1329956-.0107421879 .24798584-.0107421879 .36999513-.0107421879 .4149933 .10032654 .4149933 .11933899 .4149933 .12934876 .40699769 .13134766 .4019928 .13134766 .3929901 .13134766 .3909912 .12535095 .3889923 .11734009 .35398866 .014251709 .2639923 .014251709 .2539978 .014251709 .20399475 .014251709 .1639862 .044281007 .14099121 .08131409 .11099243 .12934876 .11099243 .19540406 .11099243 .23144531Z"/>
<path id="font_2_8" d="M.1769867 .69433596 .032989503 .68333438V.6523285C.102996829 .6523285 .11099243 .6453247 .11099243 .5962982V.07601929C.11099243 .0309906 .099990848 .0309906 .032989503 .0309906V0C.06599426 .0009918213 .11898804 .0029907227 .14399719 .0029907227 .16899109 .0029907227 .21798706 .0009918213 .25498963 0V.0309906C.18798828 .0309906 .1769867 .0309906 .1769867 .07601929V.69433596Z"/>
<path id="font_2_4" d="M.33299256 .076156619C.33699037 .036132814 .3639984-.005859375 .41099549-.005859375 .43199159-.005859375 .49299623 .008132935 .49299623 .089157108V.14518738H.46798707V.089157108C.46798707 .031143189 .44299317 .025131226 .43199159 .025131226 .39898683 .025131226 .394989 .07015991 .394989 .075149539V.27514649C.394989 .31707765 .394989 .3560791 .35899354 .39312745 .31999208 .43223573 .269989 .4482422 .22200012 .4482422 .13999939 .4482422 .070999149 .40115357 .070999149 .335083 .070999149 .30508424 .09098816 .28808595 .116989139 .28808595 .14498902 .28808595 .16299439 .30807496 .16299439 .33407594 .16299439 .3460846 .1579895 .3790741 .11199951 .38008119 .13899231 .41519166 .18798828 .426239 .21998596 .426239 .2689972 .426239 .32598878 .38710023 .32598878 .29808045V.26123048C.2749939 .2582245 .20498657 .25523377 .14199829 .22523499 .066986087 .1912384 .041992189 .13923645 .041992189 .09524536 .041992189 .014251709 .13899231-.0107421879 .20199585-.0107421879 .2679901-.010864258 .31399537 .029129029 .33299256 .076156619M.32598878 .24023438V.1401825C.32598878 .045135499 .2539978 .011138916 .20899964 .011138916 .1599884 .011138916 .11898804 .046142579 .11898804 .09616089 .11898804 .15118408 .16099549 .23422241 .32598878 .24023438Z"/>
<path id="font_2_16" d="M.4149933 .33569337C.44099427 .39866639 .49198915 .3996582 .5079956 .3996582V.43066407C.4850006 .4286499 .45599366 .42765809 .43299867 .42765809 .4149933 .42765809 .36799623 .42965699 .34599305 .43066407V.3996582C.3769989 .39866639 .3929901 .3816681 .3929901 .35668946 .3929901 .34669496 .3919983 .34469605 .3869934 .33270265L.28599549 .08683777 .1749878 .35568238C.17098999 .36567689 .16899109 .36967469 .16899109 .3736725 .16899109 .3996582 .20599365 .3996582 .22499085 .3996582V.43066407C.19898987 .42965699 .1329956 .42765809 .115997318 .42765809 .08898926 .42765809 .04899597 .4286499 .018997193 .43066407V.3996582C.066986087 .3996582 .085998538 .3996582 .099990848 .36468507L.25-.00010681152C.24499512-.0131073 .23098755-.046081544 .22499085-.05908203 .20298767-.11405945 .1749878-.18309021 .11099243-.18309021 .10598755-.18309021 .08299255-.18309021 .06399536-.16506958 .09498596-.16105652 .102996829-.1390686 .102996829-.123062137 .102996829-.09706116 .083999637-.08105469 .06098938-.08105469 .040985109-.08105469 .018997193-.094055179 .018997193-.124069217 .018997193-.16906739 .06098938-.20507813 .11099243-.20507813 .17399597-.20507813 .21499634-.14805603 .23899842-.09106445L.4149933 .33569337Z"/>
<path id="font_2_1" d="M.19198609 .052993776C.19198609 .08198547 .16799927 .10598755 .13899231 .10598755 .10998535 .10598755 .085998538 .08198547 .085998538 .052993776 .085998538 .023986817 .10998535 0 .13899231 0 .16799927 0 .19198609 .023986817 .19198609 .052993776Z"/>
<path id="font_2_2" d="M.397995 .69581606C.3929901 .7088165 .3909912 .7158203 .375 .7158203 .35899354 .7158203 .35598756 .70980837 .35099793 .69581606L.14399719 .09791565C.12599182 .04698181 .085998538 .03199768 .03199768 .0309906V0C.054992677 .0009918213 .09799194 .0029907227 .13398743 .0029907227 .16499329 .0029907227 .21699524 .0009918213 .24899292 0V.0309906C.19898987 .0309906 .17399597 .05596924 .17399597 .0819397 .17399597 .08493042 .1749878 .09492493 .17599488 .09692383L.22200012 .2277832H.46899415L.5219879 .07495117C.522995 .07095337 .5249939 .064956668 .5249939 .060958864 .5249939 .0309906 .46899415 .0309906 .44198609 .0309906V0C.47799684 .0029907227 .5479889 .0029907227 .58599856 .0029907227 .6289978 .0029907227 .6749878 .0019989014 .71699526 0V.0309906H.69898989C.6389923 .0309906 .625 .037979127 .6139984 .07095337L.397995 .69581606M.34498597 .58380129 .45799256 .25878907H.23298645L.34498597 .58380129Z"/>
<path id="font_2_9" d="M.10998535 .34429933V.076034549C.10998535 .0309906 .09899902 .0309906 .03199768 .0309906V0C.066986087 .0009918213 .117996219 .0029907227 .14498902 .0029907227 .17098999 .0029907227 .22299195 .0009918213 .25698854 0V.0309906C.18998719 .0309906 .1789856 .0309906 .1789856 .076034549V.2602234C.1789856 .36431886 .25 .42037965 .31399537 .42037965 .3769989 .42037965 .3880005 .36631776 .3880005 .30926515V.076034549C.3880005 .0309906 .3769989 .0309906 .30999757 .0309906V0C.34498597 .0009918213 .3959961 .0029907227 .4229889 .0029907227 .44898988 .0029907227 .5009918 .0009918213 .5349884 0V.0309906C.46798707 .0309906 .45700074 .0309906 .45700074 .076034549V.2602234C.45700074 .36431886 .5279999 .42037965 .59199526 .42037965 .6549988 .42037965 .66600039 .36631776 .66600039 .30926515V.076034549C.66600039 .0309906 .6549988 .0309906 .58799746 .0309906V0C.6230011 .0009918213 .673996 .0029907227 .70098879 .0029907227 .72698977 .0029907227 .7789917 .0009918213 .8129883 0V.0309906C.7609863 .0309906 .73599246 .0309906 .7350006 .061019899V.25221253C.7350006 .3383026 .7350006 .36932374 .70399478 .405365 .6899872 .42237855 .6569977 .4423828 .598999 .4423828 .5149994 .4423828 .47099305 .38233949 .45399476 .34429933 .43998719 .43138124 .3659973 .4423828 .32099916 .4423828 .24798584 .4423828 .20098877 .39935304 .17298889 .33729554V.4423828L.03199768 .43138124V.40037538C.101989749 .4003601 .10998535 .39335633 .10998535 .34429933Z"/>
<path id="font_2_10" d="M.10998535 .34429933V.076034549C.10998535 .0309906 .09899902 .0309906 .03199768 .0309906V0C.066986087 .0009918213 .117996219 .0029907227 .14498902 .0029907227 .17098999 .0029907227 .22299195 .0009918213 .25698854 0V.0309906C.18998719 .0309906 .1789856 .0309906 .1789856 .076034549V.2602234C.1789856 .36431886 .25 .42037965 .31399537 .42037965 .3769989 .42037965 .3880005 .36631776 .3880005 .30926515V.076034549C.3880005 .0309906 .3769989 .0309906 .30999757 .0309906V0C.34498597 .0009918213 .3959961 .0029907227 .4229889 .0029907227 .44898988 .0029907227 .5009918 .0009918213 .5349884 0V.0309906C.48298646 .0309906 .45799256 .0309906 .45700074 .061019899V.25221253C.45700074 .3383026 .45700074 .36932374 .42599488 .405365 .4119873 .42237855 .3789978 .4423828 .32099916 .4423828 .24798584 .4423828 .20098877 .39935304 .17298889 .33729554V.4423828L.03199768 .43138124V.40037538C.101989749 .4003601 .10998535 .39335633 .10998535 .34429933Z"/>
<path id="font_2_14" d="M.17298889 .3996582H.31599427V.43066407H.17298889V.6147156H.147995C.14698792 .5326996 .116989139 .42565919 .018997193 .42166139V.3996582H.10398865V.12416077C.10398865 .0012512207 .19699097-.0107421879 .23298645-.0107421879 .3039856-.0107421879 .33198548 .06021118 .33198548 .12416077V.18112183H.30699159V.12615967C.30699159 .052215578 .2769928 .014251709 .23999024 .014251709 .17298889 .014251709 .17298889 .10517883 .17298889 .122161868V.3996582Z"/>
<path id="font_2_13" d="M.20799256 .19424439C.22999573 .19024658 .31199647 .17424011 .31199647 .102249149 .31199647 .051254274 .2769928 .011245728 .19898987 .011245728 .114990238 .011245728 .07899475 .06825256 .05999756 .15324402 .056991579 .1662445 .055999757 .17024231 .04598999 .17024231 .032989503 .17024231 .032989503 .16323853 .032989503 .14524842V.013244629C.032989503-.003753662 .032989503-.0107421879 .04399109-.0107421879 .04899597-.0107421879 .049987794-.009750366 .068984989 .009246826 .070999149 .011245728 .070999149 .013244629 .08898926 .03224182 .1329956-.009750366 .17799378-.0107421879 .19898987-.0107421879 .31399537-.0107421879 .3600006 .056243898 .3600006 .12825012 .3600006 .1812439 .32998658 .21124268 .31799317 .22323609 .2849884 .25523377 .24598694 .26324464 .20399475 .27124024 .147995 .28224183 .08099365 .2952423 .08099365 .35324098 .08099365 .38822938 .10699463 .42922975 .19299317 .42922975 .30299378 .42922975 .30799867 .3392334 .30999757 .3082428 .31098939 .2992401 .31999208 .2992401 .32199098 .2992401 .33499146 .2992401 .33499146 .304245 .33499146 .3232422V.4242401C.33499146 .4412384 .33499146 .4482422 .32398988 .4482422 .31900025 .4482422 .31698609 .4482422 .3039856 .43623353 .30099488 .43223573 .29100038 .42323304 .2869873 .42022706 .24899292 .4482422 .20799256 .4482422 .19299317 .4482422 .070999149 .4482422 .032989503 .38124085 .032989503 .3252411 .032989503 .29023744 .04899597 .26223756 .07598877 .24023438 .10798645 .21424866 .13598633 .2082367 .20799256 .19424439Z"/>
<path id="font_2_12" d="M.16699219 .3323059V.4423828L.027999878 .43138124V.40037538C.09799194 .40037538 .10598755 .39337159 .10598755 .34431459V.076034549C.10598755 .0309906 .09498596 .0309906 .027999878 .0309906V0C.066986087 .0009918213 .11399841 .0029907227 .14199829 .0029907227 .18199158 .0029907227 .22898865 .0029907227 .2689972 0V.0309906H.24798584C.17399597 .0309906 .17199707 .042007448 .17199707 .07803345V.232193C.17199707 .33128358 .21398926 .42037965 .2899933 .42037965 .29699708 .42037965 .29899598 .42037965 .30099488 .41937257 .2979889 .41838075 .27799989 .4063568 .27799989 .38034059 .27799989 .35231019 .29899598 .33729554 .32099916 .33729554 .33898927 .33729554 .3639984 .3493042 .3639984 .3813324 .3639984 .41337586 .33299256 .4423828 .2899933 .4423828 .21699524 .4423828 .18099976 .37535096 .16699219 .3323059Z"/>
<path id="font_2_7" d="M.1769867 .4423828 .036987306 .43138124V.40037538C.101989749 .40037538 .11099243 .3943634 .11099243 .34532167V.076034549C.11099243 .0309906 .099990848 .0309906 .032989503 .0309906V0C.06498718 .0009918213 .11898804 .0029907227 .14299011 .0029907227 .17799378 .0029907227 .21299744 .0009918213 .24699402 0V.0309906C.18099976 .0309906 .1769867 .035995485 .1769867 .075042728V.4423828M.18099976 .6159363C.18099976 .64793398 .1559906 .6689453 .12799073 .6689453 .09700012 .6689453 .07499695 .64193728 .07499695 .6159363 .07499695 .5889435 .09700012 .5629425 .12799073 .5629425 .1559906 .5629425 .18099976 .5839386 .18099976 .6159363Z"/>
<path id="font_2_15" d="M.3909912 .07926941V-.0107421879L.5349884 .00024414063V.03125C.46499635 .03125 .45700074 .038253786 .45700074 .087265018V.4423828L.30999757 .43138124V.40037538C.37998963 .40037538 .3880005 .39337159 .3880005 .34436036V.16630554C.3880005 .07926941 .33999635 .011245728 .2669983 .011245728 .18299866 .011245728 .1789856 .058258058 .1789856 .11027527V.4423828L.03199768 .43138124V.40037538C.10998535 .40037538 .10998535 .39736939 .10998535 .3083496V.15829468C.10998535 .08027649 .10998535-.0107421879 .2619934-.0107421879 .31799317-.0107421879 .3619995 .01725769 .3909912 .07926941Z"/>
</defs>
<g clip-path="url(#clip_1)">
<path transform="matrix(1,0,0,-1,19.842,96.379009)" d="M0-93.54497V93.54497H272.1291V-93.54497ZM272.1291 93.54497" fill="#c7eafb"/>
<path transform="matrix(1,0,0,-1,19.842,96.379009)" d="M-17.00781-93.54497V93.54497H0V-93.54497ZM0 93.54497" fill="#b2b3b2"/>
<path transform="matrix(1,0,0,-1,19.842,96.379009)" d="M-4.25215 54.84956V72.70703H0V54.84956ZM0 72.70703" fill="#800000"/>
<path transform="matrix(1,0,0,-1,19.842,96.379009)" stroke-width=".3985" stroke-linecap="butt" stroke-miterlimit="10" stroke-linejoin="miter" fill="none" stroke="#800000" d="M-4.25215 54.84956V72.70703H0V54.84956ZM0 72.70703"/>
<path transform="matrix(1,0,0,-1,19.842,96.379009)" stroke-width=".79701" stroke-linecap="butt" stroke-miterlimit="10" stroke-linejoin="miter" fill="none" stroke="#800000" d="M29.76466 54.85043C31.567 61.57695 31.567 65.98166 29.76466 72.70816"/>
<path transform="matrix(1,0,0,-1,19.842,96.379009)" stroke-width=".79701" stroke-linecap="butt" stroke-miterlimit="10" stroke-linejoin="miter" fill="none" stroke="#800000" d="M38.26921 54.85043C40.07155 61.57695 40.07155 65.98166 38.26921 72.70816"/>
<path transform="matrix(1,0,0,-1,19.842,96.379009)" stroke-width=".79701" stroke-linecap="butt" stroke-miterlimit="10" stroke-linejoin="miter" fill="none" stroke="#800000" d="M46.77376 54.85043C48.57611 61.57695 48.57611 65.98166 46.77376 72.70816"/>
<path transform="matrix(1,0,0,-1,19.842,96.379009)" d="M-4.25215 29.33797V47.19543H0V29.33797ZM0 47.19543" fill="#800000"/>
<path transform="matrix(1,0,0,-1,19.842,96.379009)" stroke-width=".3985" stroke-linecap="butt" stroke-miterlimit="10" stroke-linejoin="miter" fill="none" stroke="#800000" d="M-4.25215 29.33797V47.19543H0V29.33797ZM0 47.19543"/>
<path transform="matrix(1,0,0,-1,19.842,96.379009)" stroke-width=".79701" stroke-linecap="butt" stroke-miterlimit="10" stroke-linejoin="miter" fill="none" stroke="#800000" d="M29.76466 29.33842C31.567 36.06494 31.567 40.46965 29.76466 47.19617"/>
<path transform="matrix(1,0,0,-1,19.842,96.379009)" stroke-width=".79701" stroke-linecap="butt" stroke-miterlimit="10" stroke-linejoin="miter" fill="none" stroke="#800000" d="M38.26921 29.33842C40.07155 36.06494 40.07155 40.46965 38.26921 47.19617"/>
<path transform="matrix(1,0,0,-1,19.842,96.379009)" stroke-width=".79701" stroke-linecap="butt" stroke-miterlimit="10" stroke-linejoin="miter" fill="none" stroke="#800000" d="M46.77376 29.33842C48.57611 36.06494 48.57611 40.46965 46.77376 47.19617"/>
<path transform="matrix(1,0,0,-1,19.842,96.379009)" d="M-4.25215 3.82632V21.68379H0V3.82632ZM0 21.68379" fill="#800000"/>
<path transform="matrix(1,0,0,-1,19.842,96.379009)" stroke-width=".3985" stroke-linecap="butt" stroke-miterlimit="10" stroke-linejoin="miter" fill="none" stroke="#800000" d="M-4.25215 3.82632V21.68379H0V3.82632ZM0 21.68379"/>
<path transform="matrix(1,0,0,-1,19.842,96.379009)" stroke-width=".79701" stroke-linecap="butt" stroke-miterlimit="10" stroke-linejoin="miter" fill="none" stroke="#800000" d="M29.76466 3.82642C31.567 10.55293 31.567 14.95764 29.76466 21.68416"/>
<path transform="matrix(1,0,0,-1,19.842,96.379009)" stroke-width=".79701" stroke-linecap="butt" stroke-miterlimit="10" stroke-linejoin="miter" fill="none" stroke="#800000" d="M38.26921 3.82642C40.07155 10.55293 40.07155 14.95764 38.26921 21.68416"/>
<path transform="matrix(1,0,0,-1,19.842,96.379009)" stroke-width=".79701" stroke-linecap="butt" stroke-miterlimit="10" stroke-linejoin="miter" fill="none" stroke="#800000" d="M46.77376 3.82642C48.57611 10.55293 48.57611 14.95764 46.77376 21.68416"/>
<path transform="matrix(1,0,0,-1,19.842,96.379009)" d="M-4.25215-21.68507V-3.8276H0V-21.68507ZM0-3.8276" fill="#800000"/>
<path transform="matrix(1,0,0,-1,19.842,96.379009)" stroke-width=".3985" stroke-linecap="butt" stroke-miterlimit="10" stroke-linejoin="miter" fill="none" stroke="#800000" d="M-4.25215-21.68507V-3.8276H0V-21.68507ZM0-3.8276"/>
<path transform="matrix(1,0,0,-1,19.842,96.379009)" stroke-width=".79701" stroke-linecap="butt" stroke-miterlimit="10" stroke-linejoin="miter" fill="none" stroke="#800000" d="M29.76466-21.68542C31.567-14.95892 31.567-10.55421 29.76466-3.8277"/>
<path transform="matrix(1,0,0,-1,19.842,96.379009)" stroke-width=".79701" stroke-linecap="butt" stroke-miterlimit="10" stroke-linejoin="miter" fill="none" stroke="#800000" d="M38.26921-21.68542C40.07155-14.95892 40.07155-10.55421 38.26921-3.8277"/>
<path transform="matrix(1,0,0,-1,19.842,96.379009)" stroke-width=".79701" stroke-linecap="butt" stroke-miterlimit="10" stroke-linejoin="miter" fill="none" stroke="#800000" d="M46.77376-21.68542C48.57611-14.95892 48.57611-10.55421 46.77376-3.8277"/>
<path transform="matrix(1,0,0,-1,19.842,96.379009)" d="M-4.25215-47.19675V-29.3393H0V-47.19675ZM0-29.3393" fill="#800000"/>
<path transform="matrix(1,0,0,-1,19.842,96.379009)" stroke-width=".3985" stroke-linecap="butt" stroke-miterlimit="10" stroke-linejoin="miter" fill="none" stroke="#800000" d="M-4.25215-47.19675V-29.3393H0V-47.19675ZM0-29.3393"/>
<path transform="matrix(1,0,0,-1,19.842,96.379009)" stroke-width=".79701" stroke-linecap="butt" stroke-miterlimit="10" stroke-linejoin="miter" fill="none" stroke="#800000" d="M29.76466-47.19748C31.567-40.47098 31.567-36.06625 29.76466-29.33975"/>
<path transform="matrix(1,0,0,-1,19.842,96.379009)" stroke-width=".79701" stroke-linecap="butt" stroke-miterlimit="10" stroke-linejoin="miter" fill="none" stroke="#800000" d="M38.26921-47.19748C40.07155-40.47098 40.07155-36.06625 38.26921-29.33975"/>
<path transform="matrix(1,0,0,-1,19.842,96.379009)" stroke-width=".79701" stroke-linecap="butt" stroke-miterlimit="10" stroke-linejoin="miter" fill="none" stroke="#800000" d="M46.77376-47.19748C48.57611-40.47098 48.57611-36.06625 46.77376-29.33975"/>
<path transform="matrix(1,0,0,-1,19.842,96.379009)" d="M-4.25215-72.7083V-54.85085H0V-72.7083ZM0-54.85085" fill="#800000"/>
<path transform="matrix(1,0,0,-1,19.842,96.379009)" stroke-width=".3985" stroke-linecap="butt" stroke-miterlimit="10" stroke-linejoin="miter" fill="none" stroke="#800000" d="M-4.25215-72.7083V-54.85085H0V-72.7083ZM0-54.85085"/>
<path transform="matrix(1,0,0,-1,19.842,96.379009)" stroke-width=".79701" stroke-linecap="butt" stroke-miterlimit="10" stroke-linejoin="miter" fill="none" stroke="#800000" d="M29.76466-72.70944C31.567-65.98293 31.567-61.57822 29.76466-54.85172"/>
<path transform="matrix(1,0,0,-1,19.842,96.379009)" stroke-width=".79701" stroke-linecap="butt" stroke-miterlimit="10" stroke-linejoin="miter" fill="none" stroke="#800000" d="M38.26921-72.70944C40.07155-65.98293 40.07155-61.57822 38.26921-54.85172"/>
<path transform="matrix(1,0,0,-1,19.842,96.379009)" stroke-width=".79701" stroke-linecap="butt" stroke-miterlimit="10" stroke-linejoin="miter" fill="none" stroke="#800000" d="M46.77376-72.70944C48.57611-65.98293 48.57611-61.57822 46.77376-54.85172"/>
<use data-text="N" xlink:href="#font_2_3" transform="matrix(9.9626,0,0,-9.9626,116.14101,15.824005)"/>
<use data-text="o" xlink:href="#font_2_11" transform="matrix(9.9626,0,0,-9.9626,123.61295,15.824005)"/>
<use data-text="d" xlink:href="#font_2_5" transform="matrix(9.9626,0,0,-9.9626,131.9118,15.824005)"/>
<use data-text="e" xlink:href="#font_2_6" transform="matrix(9.9626,0,0,-9.9626,137.45099,15.824005)"/>
<use data-text="l" xlink:href="#font_2_8" transform="matrix(9.9626,0,0,-9.9626,141.87439,15.824005)"/>
<use data-text="a" xlink:href="#font_2_4" transform="matrix(9.9626,0,0,-9.9626,144.64402,15.824005)"/>
<use data-text="y" xlink:href="#font_2_16" transform="matrix(9.9626,0,0,-9.9626,149.3563,15.824005)"/>
<use data-text="." xlink:href="#font_2_1" transform="matrix(9.9626,0,0,-9.9626,153.7797,15.824005)"/>
<use data-text="A" xlink:href="#font_2_2" transform="matrix(9.9626,0,0,-9.9626,116.14101,27.779007)"/>
<use data-text="l" xlink:href="#font_2_8" transform="matrix(9.9626,0,0,-9.9626,123.61295,27.779007)"/>
<use data-text="l" xlink:href="#font_2_8" transform="matrix(9.9626,0,0,-9.9626,126.38255,27.779007)"/>
<use data-text="e" xlink:href="#font_2_6" transform="matrix(9.9626,0,0,-9.9626,132.4697,27.779007)"/>
<use data-text="l" xlink:href="#font_2_8" transform="matrix(9.9626,0,0,-9.9626,136.8931,27.779007)"/>
<use data-text="e" xlink:href="#font_2_6" transform="matrix(9.9626,0,0,-9.9626,139.66272,27.779007)"/>
<use data-text="m" xlink:href="#font_2_9" transform="matrix(9.9626,0,0,-9.9626,144.08612,27.779007)"/>
<use data-text="e" xlink:href="#font_2_6" transform="matrix(9.9626,0,0,-9.9626,152.38495,27.779007)"/>
<use data-text="n" xlink:href="#font_2_10" transform="matrix(9.9626,0,0,-9.9626,156.80835,27.779007)"/>
<use data-text="t" xlink:href="#font_2_14" transform="matrix(9.9626,0,0,-9.9626,162.07855,27.779007)"/>
<use data-text="s" xlink:href="#font_2_13" transform="matrix(9.9626,0,0,-9.9626,165.95401,27.779007)"/>
<use data-text="t" xlink:href="#font_2_14" transform="matrix(9.9626,0,0,-9.9626,173.19684,27.779007)"/>
<use data-text="r" xlink:href="#font_2_12" transform="matrix(9.9626,0,0,-9.9626,177.0723,27.779007)"/>
<use data-text="a" xlink:href="#font_2_4" transform="matrix(9.9626,0,0,-9.9626,180.97763,27.779007)"/>
<use data-text="n" xlink:href="#font_2_10" transform="matrix(9.9626,0,0,-9.9626,185.95893,27.779007)"/>
<use data-text="s" xlink:href="#font_2_13" transform="matrix(9.9626,0,0,-9.9626,191.49811,27.779007)"/>
<use data-text="m" xlink:href="#font_2_9" transform="matrix(9.9626,0,0,-9.9626,195.42337,27.779007)"/>
<use data-text="i" xlink:href="#font_2_7" transform="matrix(9.9626,0,0,-9.9626,203.72223,27.779007)"/>
<use data-text="t" xlink:href="#font_2_14" transform="matrix(9.9626,0,0,-9.9626,206.49182,27.779007)"/>
<use data-text="s" xlink:href="#font_2_13" transform="matrix(9.9626,0,0,-9.9626,213.68485,27.779007)"/>
<use data-text="i" xlink:href="#font_2_7" transform="matrix(9.9626,0,0,-9.9626,217.6101,27.779007)"/>
<use data-text="m" xlink:href="#font_2_9" transform="matrix(9.9626,0,0,-9.9626,220.3797,27.779007)"/>
<use data-text="u" xlink:href="#font_2_15" transform="matrix(9.9626,0,0,-9.9626,228.40955,27.779007)"/>
<use data-text="l" xlink:href="#font_2_8" transform="matrix(9.9626,0,0,-9.9626,233.94876,27.779007)"/>
<use data-text="t" xlink:href="#font_2_14" transform="matrix(9.9626,0,0,-9.9626,236.71836,27.779007)"/>
<use data-text="a" xlink:href="#font_2_4" transform="matrix(9.9626,0,0,-9.9626,240.59381,27.779007)"/>
<use data-text="n" xlink:href="#font_2_10" transform="matrix(9.9626,0,0,-9.9626,245.5751,27.779007)"/>
<use data-text="e" xlink:href="#font_2_6" transform="matrix(9.9626,0,0,-9.9626,251.10434,27.779007)"/>
<use data-text="o" xlink:href="#font_2_11" transform="matrix(9.9626,0,0,-9.9626,255.53772,27.779007)"/>
<use data-text="u" xlink:href="#font_2_15" transform="matrix(9.9626,0,0,-9.9626,260.519,27.779007)"/>
<use data-text="s" xlink:href="#font_2_13" transform="matrix(9.9626,0,0,-9.9626,266.04829,27.779007)"/>
<use data-text="l" xlink:href="#font_2_8" transform="matrix(9.9626,0,0,-9.9626,269.9835,27.779007)"/>
<use data-text="y" xlink:href="#font_2_16" transform="matrix(9.9626,0,0,-9.9626,272.75309,27.779007)"/>
<use data-text="." xlink:href="#font_2_1" transform="matrix(9.9626,0,0,-9.9626,277.17649,27.779007)"/>
</g>
</svg>
