<svg xmlns="http://www.w3.org/2000/svg" xmlns:xlink="http://www.w3.org/1999/xlink" xmlns:inkscape="http://www.inkscape.org/namespaces/inkscape" version="1.1" width="235.275" height="235.275" viewBox="0 0 235.275 235.275">
<defs>
<clipPath id="clip_1">
<path transform="matrix(1,0,0,-1,19.842,121.88899)" d="M-17.00781-110.5528V119.05606H212.60105V-110.5528ZM212.60105 119.05606"/>
</clipPath>
<path id="font_2_5" d="M.19198609 .052993776C.19198609 .08198547 .16799927 .10598755 .13899231 .10598755 .10998535 .10598755 .085998538 .08198547 .085998538 .052993776 .085998538 .023986817 .10998535 0 .13899231 0 .16799927 0 .19198609 .023986817 .19198609 .052993776Z"/>
<path id="font_2_6" d="M.2939911 .64004519C.2939911 .66400149 .2939911 .6660156 .2709961 .6660156 .20899964 .60227969 .12098694 .60227969 .08898926 .60227969V.57128909C.10899353 .57128909 .16799927 .57128909 .21998596 .5972748V.07902527C.21998596 .042999269 .21699524 .0309906 .1269989 .0309906H.09498596V0C.12998963 .0029907227 .21699524 .0029907227 .25698854 .0029907227 .29699708 .0029907227 .38398744 .0029907227 .4189911 0V.0309906H.3869934C.29699708 .0309906 .2939911 .041992189 .2939911 .07902527V.64004519Z"/>
<path id="font_2_7" d="M.1269989 .07699585 .23298645 .18003845C.3889923 .31811524 .44898988 .3721466 .44898988 .47216798 .44898988 .5860901 .35899354 .6660156 .23699951 .6660156 .12399292 .6660156 .049987794 .57411196 .049987794 .48516847 .049987794 .4291687 .099990848 .4291687 .102996829 .4291687 .11999512 .4291687 .15499878 .44117738 .15499878 .48217774 .15499878 .5081787 .13699341 .5341797 .101989749 .5341797 .09399414 .5341797 .09199524 .5341797 .08898926 .5331726 .11199951 .59806826 .1659851 .63500979 .22399903 .63500979 .31498719 .63500979 .35798646 .5541382 .35798646 .47216798 .35798646 .39215089 .30799867 .31311036 .25299073 .25108338L.06098938 .036987306C.049987794 .025985718 .049987794 .023986817 .049987794 0H.42099L.44898988 .17404175H.42399598C.4189911 .14402771 .4119873 .1000061 .4019928 .084991458 .394989 .07699585 .32899476 .07699585 .30699159 .07699585H.1269989Z"/>
<path id="font_2_8" d="M.2899933 .35191346C.37199403 .37893678 .42999269 .4490509 .42999269 .52809146 .42999269 .6100464 .34199525 .6660156 .24598694 .6660156 .14498902 .6660156 .068984989 .60606387 .068984989 .53009036 .068984989 .49710084 .09098816 .47808839 .11999512 .47808839 .15098572 .47808839 .17098999 .50009158 .17098999 .5290985 .17098999 .57910159 .12399292 .57910159 .10899353 .57910159 .13999939 .62802127 .20599365 .64100649 .24198914 .64100649 .2829895 .64100649 .33799745 .6190338 .33799745 .5290985 .33799745 .51708987 .33599855 .45906068 .30999757 .4149933 .27999879 .36691285 .24598694 .36390687 .22099304 .36291505 .21299744 .36190797 .18899536 .35990907 .18199158 .35990907 .17399597 .35890199 .16699219 .35791017 .16699219 .3479004 .16699219 .33691407 .17399597 .33691407 .19099427 .33691407H.23498535C.31698609 .33691407 .35398866 .2686615 .35398866 .17037964 .35398866 .034469606 .2849884 .0055389406 .24099732 .0055389406 .19799805 .0055389406 .12298584 .022491456 .08799744 .08137512 .12298584 .07637024 .1539917 .09837341 .1539917 .1363678 .1539917 .17237854 .1269989 .19238281 .09799194 .19238281 .07398987 .19238281 .041992189 .17837525 .041992189 .1343689 .041992189 .043441774 .1349945-.022460938 .24398804-.022460938 .3659973-.022460938 .45700074 .06838989 .45700074 .17037964 .45700074 .252594 .3939972 .33088685 .2899933 .35191346Z"/>
<path id="font_2_9" d="M.2939911 .16503906V.07800293C.2939911 .041992189 .2919922 .0309906 .21798706 .0309906H.19699097V0C.23799134 .0029907227 .2899933 .0029907227 .33198548 .0029907227 .37399293 .0029907227 .4269867 .0029907227 .46798707 0V.0309906H.44699098C.37298585 .0309906 .37098695 .041992189 .37098695 .07800293V.16503906H.47099305V.19602967H.37098695V.65075686C.37098695 .67074587 .37098695 .6767578 .35499574 .6767578 .34599305 .6767578 .34298707 .6767578 .33499146 .66474917L.027999878 .19602967V.16503906H.2939911M.2999878 .19602967H.055999757L.2999878 .5688019V.19602967Z"/>
<path id="font_2_10" d="M.44898988 .20022583C.44898988 .3193512 .36698915 .41944886 .25898744 .41944886 .21099854 .41944886 .16799927 .40345765 .13198853 .36842347V.5637665C.1519928 .5577698 .18499756 .55078127 .21699524 .55078127 .33999635 .55078127 .4099884 .6417694 .4099884 .6547699 .4099884 .6607666 .40699769 .6657715 .3999939 .6657715 .39898683 .6657715 .39698792 .6657715 .3919983 .66278079 .37199403 .6537781 .32299806 .6337738 .2559967 .6337738 .21598816 .6337738 .16999817 .6407776 .12298584 .6617737 .114990238 .66477969 .11299133 .66477969 .11099243 .66477969 .100997928 .66477969 .100997928 .6567688 .100997928 .6407776V.34439088C.100997928 .32637025 .100997928 .31835938 .114990238 .31835938 .12199402 .31835938 .12399292 .32136537 .12799073 .32736207 .13899231 .3433838 .17599488 .39746095 .25698854 .39746095 .30899049 .39746095 .33399964 .35139466 .34199525 .33337403 .35798646 .29632569 .3600006 .25727845 .3600006 .20722962 .3600006 .17222595 .3600006 .11222839 .33599855 .07035828 .31199647 .031463624 .2749939 .0055389406 .22898865 .0055389406 .1559906 .0055389406 .09899902 .058380128 .08198547 .11723328 .084991458 .1162262 .08799744 .115234378 .09899902 .115234378 .13198853 .115234378 .14898682 .14022827 .14898682 .16423035 .14898682 .18823242 .13198853 .21322632 .09899902 .21322632 .084991458 .21322632 .049987794 .20622254 .049987794 .16023255 .049987794 .07434082 .11898804-.022460938 .23098755-.022460938 .34700013-.022460938 .44898988 .073349 .44898988 .20022583Z"/>
<path id="font_2_12" d="M.23199463 .6696167C.22299195 .6816101 .22200012 .6826172 .20298767 .6826172H.032989503V.6516113H.06199646C.07699585 .6516113 .09700012 .65060427 .11199951 .6496124 .1349945 .64660647 .13598633 .6456146 .13598633 .62661746V.10494995C.13598633 .07795715 .13598633 .0309906 .032989503 .0309906V0C.067993167 .0009918213 .116989139 .0029907227 .1499939 .0029907227 .18299866 .0029907227 .23199463 .0009918213 .2669983 0V.0309906C.1639862 .0309906 .1639862 .07795715 .1639862 .10494995V.62461856C.16899109 .6196289 .16999817 .6186218 .17399597 .6126251L.58200076 .0129852299C.59098818 .0009918213 .59199526 0 .598999 0 .61299136 0 .61299136 .0069885256 .61299136 .025985718V.577652C.61299136 .6046295 .61299136 .6516113 .71598818 .6516113V.6826172C.68099978 .6816101 .6319885 .6796112 .598999 .6796112 .56599429 .6796112 .5169983 .6816101 .48199464 .6826172V.6516113C.58499148 .6516113 .58499148 .6046295 .58499148 .577652V.15092469L.23199463 .6696167Z"/>
<path id="font_2_4" d="M.27598573 .18710327V.24511719H.010986328V.18710327H.27598573Z"/>
<path id="font_3_3" d="M.5159912 .68333438C.5159912 .6843262 .5159912 .69433596 .5029907 .69433596 .48799134 .69433596 .3929901 .68533328 .37599183 .68333438 .36799623 .6823273 .3619995 .6773224 .3619995 .6643219 .3619995 .6523285 .37098695 .6523285 .38598634 .6523285 .43399049 .6523285 .43598939 .6453247 .43598939 .6353302L.43299867 .6153412 .37298585 .37835694C.35499574 .41537477 .32598878 .4423828 .2809906 .4423828 .1639862 .4423828 .039993287 .29533387 .039993287 .14929199 .039993287 .055267335 .09498596-.0107421879 .17298889-.0107421879 .19299317-.0107421879 .24299622-.0067443849 .30299378 .06427002 .31098939 .022247315 .34599305-.0107421879 .3939972-.0107421879 .42900086-.0107421879 .45199586 .012252808 .46798707 .044265748 .4850006 .08027649 .49798585 .14129639 .49798585 .14329529 .49798585 .1532898 .4889984 .1532898 .48599244 .1532898 .47599793 .1532898 .47499085 .14929199 .47200013 .13528443 .45498658 .07026672 .43699647 .011245728 .3959961 .011245728 .36898805 .011245728 .3659973 .037261964 .3659973 .057266237 .3659973 .08126831 .36799623 .088272098 .37199403 .105285648L.5159912 .68333438M.30799867 .119277957C.30299378 .10127258 .30299378 .09927368 .28799439 .08227539 .24398804 .027252198 .20298767 .011245728 .1749878 .011245728 .125 .011245728 .11099243 .06626892 .11099243 .105285648 .11099243 .1552887 .14299011 .27833558 .1659851 .32434083 .19699097 .38336183 .24198914 .42037965 .28199769 .42037965 .34700013 .42037965 .36099244 .3383484 .36099244 .33235169 .36099244 .32633973 .35899354 .32034303 .35798646 .31533814L.30799867 .119277957Z"/>
<path id="font_3_6" d="M.46199037 .33935548C.46699525 .36135865 .47698976 .3983612 .47698976 .40437318 .47698976 .42237855 .46299745 .43138124 .44799806 .43138124 .43598939 .43138124 .41799928 .42337037 .41099549 .4033661 .4079895 .3963623 .36099244 .205307 .35398866 .17930603 .34700013 .14929199 .34498597 .13128662 .34498597 .11328125 .34498597 .10227966 .34498597 .10028076 .34599305 .09527588 .32299806 .042266847 .29299928 .011245728 .2539978 .011245728 .17399597 .011245728 .17399597 .08526611 .17399597 .10227966 .17399597 .1342926 .1789856 .17329407 .22599793 .29634095 .23699951 .32633973 .24299622 .3403473 .24299622 .36035157 .24299622 .405365 .20999146 .4423828 .16099549 .4423828 .06599426 .4423828 .0289917 .29733277 .0289917 .28833009 .0289917 .27833558 .038986207 .27833558 .040985109 .27833558 .050994874 .27833558 .051986696 .28033448 .056991579 .29634095 .083999637 .38935853 .12298584 .42037965 .1579895 .42037965 .16699219 .42037965 .18299866 .41937257 .18299866 .38735963 .18299866 .36235047 .17199707 .3343506 .16499329 .31733705 .12098694 .1993103 .10899353 .1532898 .10899353 .11528015 .10899353 .024261475 .17599488-.0107421879 .25099183-.0107421879 .2679901-.0107421879 .31498719-.0107421879 .35499574 .059265138 .3809967-.0047454836 .44999696-.0107421879 .47999574-.0107421879 .5549927-.0107421879 .598999 .052261354 .625 .11227417 .6589966 .19030762 .69099429 .32434083 .69099429 .37236024 .69099429 .42736817 .6639862 .4423828 .6469879 .4423828 .621994 .4423828 .5970001 .41636659 .5970001 .3943634 .5970001 .38136292 .6029968 .3753662 .6119995 .36735536 .6230011 .35635377 .647995 .33035279 .647995 .28233338 .647995 .24832154 .61898806 .15029907 .59298709 .09927368 .5669861 .04626465 .5319977 .011245728 .48298646 .011245728 .43598939 .011245728 .40899659 .041259767 .40899659 .09828186 .40899659 .12628174 .41600038 .1572876 .41999818 .17129517L.46199037 .33935548Z"/>
<path id="font_3_5" d="M.2869873 .68333438C.2869873 .6843262 .2869873 .69433596 .27398683 .69433596 .25099183 .69433596 .17799378 .6863251 .1519928 .6843262 .14399719 .68333438 .1329956 .6823273 .1329956 .6643219 .1329956 .6523285 .14199829 .6523285 .15699768 .6523285 .20498657 .6523285 .20698548 .6453247 .20698548 .6353302L.20399475 .6153412 .05899048 .039260866C.054992677 .025253296 .054992677 .023254395 .054992677 .01725769 .054992677-.0057525637 .07499695-.0107421879 .083999637-.0107421879 .09700012-.0107421879 .11199951-.0017547608 .117996219 .010253906 .12298584 .019256592 .16799927 .20431519 .17399597 .22932434 .20799256 .22631836 .2899933 .21031189 .2899933 .14428711 .2899933 .13729859 .2899933 .13328552 .2869873 .123291019 .2849884 .11128235 .2829895 .09927368 .2829895 .088272098 .2829895 .029251099 .32299806-.0107421879 .375-.0107421879 .40499879-.0107421879 .43199159 .0052490236 .45399476 .042266847 .47898866 .08627319 .48999024 .14129639 .48999024 .14329529 .48999024 .1532898 .48098756 .1532898 .47799684 .1532898 .46798707 .1532898 .46699525 .14929199 .46398927 .13528443 .44400025 .06227112 .42099 .011245728 .3769989 .011245728 .35798646 .011245728 .34498597 .022247315 .34498597 .058273317 .34498597 .07527161 .34899903 .09828186 .35299684 .11428833 .35699464 .13128662 .35699464 .13528443 .35699464 .14529419 .35699464 .21031189 .2939911 .23931885 .20899964 .2503357 .23999024 .26834107 .27198792 .30033876 .29499818 .32435609 .34298707 .37734986 .3889923 .42037965 .43798829 .42037965 .44400025 .42037965 .44499208 .42037965 .44699098 .41937257 .45899964 .41737367 .45999146 .41737367 .46798707 .4113617 .46998597 .4103546 .46998597 .40934754 .47200013 .40734864 .42399598 .4043579 .4149933 .36535646 .4149933 .35334779 .4149933 .33735658 .42599488 .31835938 .45298768 .31835938 .47898866 .31835938 .5079956 .3403473 .5079956 .37934876 .5079956 .40934754 .4850006 .4423828 .43998719 .4423828 .4119873 .4423828 .3659973 .43437196 .2939911 .35435487 .2599945 .3163452 .22099304 .27633668 .18299866 .26133729L.2869873 .68333438Z"/>
<path id="font_3_4" d="M.2869873 .68333438C.2869873 .6843262 .2869873 .69433596 .27398683 .69433596 .25099183 .69433596 .17799378 .6863251 .1519928 .6843262 .14399719 .68333438 .1329956 .6823273 .1329956 .6643219 .1329956 .6523285 .14199829 .6523285 .15699768 .6523285 .20498657 .6523285 .20698548 .6453247 .20698548 .6353302L.20399475 .6153412 .05899048 .039260866C.054992677 .025253296 .054992677 .023254395 .054992677 .01725769 .054992677-.0057525637 .07499695-.0107421879 .083999637-.0107421879 .099990848-.0107421879 .115997318 .0012512207 .12098694 .015258789L.13999939 .091278079 .1619873 .18130493C.16799927 .2033081 .17399597 .22531128 .1789856 .24832154 .18099976 .25431825 .18899536 .28733827 .18998719 .29333497 .19299317 .30233766 .22399903 .35835267 .2579956 .38536073 .27999879 .4013672 .31098939 .42037965 .35398866 .42037965 .39698792 .42037965 .4079895 .3863678 .4079895 .35035707 .4079895 .29634095 .36999513 .18730164 .34599305 .12628174 .33799745 .103271488 .33299256 .091278079 .33299256 .0712738 .33299256 .024261475 .36799623-.0107421879 .4149933-.0107421879 .5089874-.0107421879 .54599 .13528443 .54599 .14329529 .54599 .1532898 .5369873 .1532898 .5339966 .1532898 .5239868 .1532898 .5239868 .15029907 .5189972 .13528443 .5039978 .08227539 .47200013 .011245728 .4169922 .011245728 .3999939 .011245728 .3929901 .021255494 .3929901 .044265748 .3929901 .0692749 .4019928 .09327698 .41099549 .11528015 .4269867 .15829468 .47200013 .2773285 .47200013 .3353424 .47200013 .4003601 .43199159 .4423828 .35699464 .4423828 .2939911 .4423828 .24598694 .41137696 .20899964 .36535646L.2869873 .68333438Z"/>
<path id="font_3_1" d="M.15899658 .07795715C.14898682 .038986207 .14698792 .0309906 .067993167 .0309906 .050994874 .0309906 .039993287 .0309906 .039993287 .011993408 .039993287 0 .04899597 0 .067993167 0H.39898683C.6069946 0 .80400088 .21087647 .80400088 .42974855 .80400088 .5706482 .71899417 .6826172 .56900027 .6826172H.23298645C.21398926 .6826172 .20298767 .6826172 .20298767 .66360476 .20298767 .6516113 .21199036 .6516113 .23199463 .6516113 .24499512 .6516113 .2630005 .65060427 .2749939 .6496124 .29100038 .6476135 .29699708 .64460757 .29699708 .6336212 .29699708 .6296234 .29599 .62661746 .29299928 .614624L.15899658 .07795715M.375 .6136322C.38398744 .64860537 .38598634 .6516113 .42900086 .6516113H.5359955C.6339874 .6516113 .71699526 .5986328 .71699526 .46672059 .71699526 .41775514 .69699099 .25386048 .6119995 .1439209 .58299258 .10694885 .5039978 .0309906 .3809967 .0309906H.2679901C.2539978 .0309906 .2519989 .0309906 .24598694 .03199768 .23599243 .032989503 .23298645 .033996583 .23298645 .041992189 .23298645 .04498291 .23298645 .04698181 .23799134 .064971927L.375 .6136322Z"/>
<path id="font_2_11" d="M.68699648 .32714845C.70199587 .32714845 .72099307 .32714845 .72099307 .34713746 .72099307 .36714173 .70199587 .36714173 .6879883 .36714173H.08898926C.07499695 .36714173 .055999757 .36714173 .055999757 .34713746 .055999757 .32714845 .07499695 .32714845 .08999634 .32714845H.68699648M.6879883 .13284302C.70199587 .13284302 .72099307 .13284302 .72099307 .15284729 .72099307 .17285156 .70199587 .17285156 .68699648 .17285156H.08999634C.07499695 .17285156 .055999757 .17285156 .055999757 .15284729 .055999757 .13284302 .07499695 .13284302 .08898926 .13284302H.6879883Z"/>
<path id="font_2_1" d="M.33099366-.2400055C.33099366-.23701477 .33099366-.23500061 .31399537-.21800232 .18899536-.0920105 .15699768 .09700012 .15699768 .25 .15699768 .42399598 .19499207 .59799197 .31799317 .72299197 .33099366 .73498538 .33099366 .7369995 .33099366 .73999026 .33099366 .746994 .32699586 .75 .32099916 .75 .31098939 .75 .22099304 .6819916 .1619873 .5549927 .11099243 .44499208 .09899902 .33399964 .09899902 .25 .09899902 .17199707 .10998535 .050994874 .16499329-.06201172 .22499085-.18501282 .31098939-.25 .32099916-.25 .32699586-.25 .33099366-.24700928 .33099366-.2400055Z"/>
<path id="font_3_2" d="M.7559967 .577652C.7659912 .61763 .7839966 .64860537 .8639984 .6516113 .86898806 .6516113 .8809967 .65260317 .8809967 .6716156 .8809967 .6726074 .8809967 .6826172 .8679962 .6826172 .83499148 .6826172 .7999878 .6796112 .7669983 .6796112 .73298647 .6796112 .69799807 .6826172 .6649933 .6826172 .6589966 .6826172 .6469879 .6826172 .6469879 .6626129 .6469879 .6516113 .6569977 .6516113 .6649933 .6516113 .7220001 .65060427 .73298647 .6296234 .73298647 .6076355 .73298647 .6046295 .73098757 .5896454 .7299957 .5866394L.6179962 .141922 .39698792 .66360476C.3889923 .6816101 .3880005 .6826172 .36499024 .6826172H.23098755C.21099854 .6826172 .20199585 .6826172 .20199585 .6626129 .20199585 .6516113 .21099854 .6516113 .22999573 .6516113 .23498535 .6516113 .2979889 .6516113 .2979889 .64260867L.1639862 .10594177C.1539917 .065963748 .13699341 .033996583 .055999757 .0309906 .049987794 .0309906 .038986207 .02999878 .038986207 .010986328 .038986207 .0039978029 .04399109 0 .051986696 0 .083999637 0 .11898804 .0029907227 .1519928 .0029907227 .18598938 .0029907227 .22200012 0 .25498963 0 .2599945 0 .272995 0 .272995 .019989014 .272995 .02999878 .2639923 .0309906 .25299073 .0309906 .19499207 .032989503 .18699646 .054977418 .18699646 .07496643 .18699646 .081954959 .18798828 .08695984 .19099427 .09794617L.32299806 .6256256C.32699586 .6196289 .32699586 .61763 .33198548 .6076355L.58099368 .018997193C.58799746 .0019989014 .59098818 0 .59999087 0 .61099246 0 .61099246 .0029907227 .6159973 .020996094L.7559967 .577652Z"/>
<path id="font_4_1" d="M.6589966 .23046875C.6759949 .23046875 .69400027 .23046875 .69400027 .25045777 .69400027 .27046205 .6759949 .27046205 .6589966 .27046205H.117996219C.100997928 .27046205 .08299255 .27046205 .08299255 .25045777 .08299255 .23046875 .100997928 .23046875 .117996219 .23046875H.6589966Z"/>
<path id="font_2_2" d="M.2889862 .25C.2889862 .32798768 .27799989 .44898988 .22299195 .56199648 .16299439 .68499758 .07699585 .75 .066986087 .75 .06098938 .75 .056991579 .74598696 .056991579 .73999026 .056991579 .7369995 .056991579 .73498538 .07598877 .71699526 .17399597 .6179962 .23098755 .45899964 .23098755 .25 .23098755 .07899475 .19400025-.09700012 .069992069-.2230072 .056991579-.23500061 .056991579-.23701477 .056991579-.2400055 .056991579-.2460022 .06098938-.25 .066986087-.25 .07699585-.25 .16699219-.18200684 .22599793-.055007936 .2769928 .054992677 .2889862 .16600037 .2889862 .25Z"/>
<path id="font_2_3" d="M.40899659 .23046875H.6879883C.70199587 .23046875 .72099307 .23046875 .72099307 .25045777 .72099307 .27046205 .70199587 .27046205 .6879883 .27046205H.40899659V.5500183C.40899659 .56399539 .40899659 .5830078 .3889923 .5830078 .36898805 .5830078 .36898805 .56399539 .36898805 .5500183V.27046205H.08898926C.07499695 .27046205 .055999757 .27046205 .055999757 .25045777 .055999757 .23046875 .07499695 .23046875 .08898926 .23046875H.36898805V-.05000305C.36898805-.06401062 .36898805-.08300781 .3889923-.08300781 .40899659-.08300781 .40899659-.06401062 .40899659-.05000305V.23046875Z"/>
<path id="font_4_2" d="M.7220001 .4517517C.7220001 .4727478 .71499636 .4817505 .70799258 .4817505 .70399478 .4817505 .69499209 .4777527 .69400027 .4547577 .6899872 .38589479 .6199951 .34506227 .5549927 .34506227 .49699403 .34506227 .44699098 .37594605 .394989 .41081239 .34098817 .44674684 .2869873 .48275758 .22200012 .48275758 .1289978 .48275758 .054992677 .4118042 .054992677 .3200531 .054992677 .29804994 .06298828 .29005433 .068984989 .29005433 .07899475 .29005433 .08299255 .3090515 .08299255 .31304933 .08799744 .39686585 .16999817 .4267578 .22200012 .4267578 .27999879 .4267578 .32998658 .39585877 .38198854 .36099244 .43598939 .32505799 .48999024 .2890625 .5549927 .2890625 .647995 .2890625 .7220001 .3600006 .7220001 .4517517M.7220001 .21798706C.7220001 .24699402 .70999148 .24899292 .70799258 .24899292 .70399478 .24899292 .69499209 .24398804 .69400027 .22198487 .6899872 .1531372 .6199951 .11230469 .5549927 .11230469 .49699403 .11230469 .44699098 .14318848 .394989 .17805481 .34098817 .21398926 .2869873 .25 .22200012 .25 .1289978 .25 .054992677 .17904663 .054992677 .08729553 .054992677 .06529236 .06298828 .057296754 .068984989 .057296754 .07899475 .057296754 .08299255 .076293949 .08299255 .08029175 .08799744 .16410828 .16999817 .19398499 .22200012 .19398499 .27999879 .19398499 .32998658 .1631012 .38198854 .12823487 .43598939 .092300418 .48999024 .056289674 .5549927 .056289674 .6499939 .056289674 .7220001 .13023377 .7220001 .21798706Z"/>
</defs>
<path transform="matrix(1,0,0,-1,19.842,121.88899)" d="M-21.29733-106.26328V114.76656C-21.29733 119.50467-17.45642 123.34558-12.7183 123.34558H208.31154C213.04965 123.34558 216.89055 119.50467 216.89055 114.76656V-106.26328C216.89055-111.0014 213.04965-114.8423 208.31154-114.8423H-12.7183C-17.45642-114.8423-21.29733-111.0014-21.29733-106.26328ZM216.89055 123.34558" fill="#b2b3b2"/>
<g clip-path="url(#clip_1)">
<path transform="matrix(1,0,0,-1,19.842,121.88899)" d="M-17.00781-110.5528V119.05606H0V-110.5528ZM0 119.05606" fill="#b2b3b2"/>
<path transform="matrix(1,0,0,-1,19.842,121.88899)" d="M2.55232-85.0391V85.04042H22.9608V-85.0391ZM22.9608 85.04042" fill="#800000"/>
<path transform="matrix(1,0,0,-1,19.842,121.88899)" stroke-width=".3985" stroke-linecap="butt" stroke-miterlimit="10" stroke-linejoin="miter" fill="none" stroke="#800000" d="M2.55232-85.0391V85.04042H22.9608V-85.0391ZM22.9608 85.04042"/>
<path transform="matrix(1,0,0,-1,19.842,121.88899)" d="M28.06429-85.0391V85.04042H48.47235V-85.0391ZM48.47235 85.04042" fill="#800000"/>
<path transform="matrix(1,0,0,-1,19.842,121.88899)" stroke-width=".3985" stroke-linecap="butt" stroke-miterlimit="10" stroke-linejoin="miter" fill="none" stroke="#800000" d="M28.06429-85.0391V85.04042H48.47235V-85.0391ZM48.47235 85.04042"/>
<path transform="matrix(1,0,0,-1,19.842,121.88899)" d="M53.57634-85.0391V85.04042H73.98404V-85.0391ZM73.98404 85.04042" fill="#800000"/>
<path transform="matrix(1,0,0,-1,19.842,121.88899)" stroke-width=".3985" stroke-linecap="butt" stroke-miterlimit="10" stroke-linejoin="miter" fill="none" stroke="#800000" d="M53.57634-85.0391V85.04042H73.98404V-85.0391ZM73.98404 85.04042"/>
<path transform="matrix(1,0,0,-1,19.842,121.88899)" d="M79.0883-85.0391V85.04042H99.49559V-85.0391ZM99.49559 85.04042" fill="#800000"/>
<path transform="matrix(1,0,0,-1,19.842,121.88899)" stroke-width=".3985" stroke-linecap="butt" stroke-miterlimit="10" stroke-linejoin="miter" fill="none" stroke="#800000" d="M79.0883-85.0391V85.04042H99.49559V-85.0391ZM99.49559 85.04042"/>
<path transform="matrix(1,0,0,-1,19.842,121.88899)" d="M104.60036-85.0391V85.04042H125.00728V-85.0391ZM125.00728 85.04042" fill="#800000"/>
<path transform="matrix(1,0,0,-1,19.842,121.88899)" stroke-width=".3985" stroke-linecap="butt" stroke-miterlimit="10" stroke-linejoin="miter" fill="none" stroke="#800000" d="M104.60036-85.0391V85.04042H125.00728V-85.0391ZM125.00728 85.04042"/>
<path transform="matrix(1,0,0,-1,19.842,121.88899)" d="M155.62427-85.0391V85.04042H176.03043V-85.0391ZM176.03043 85.04042" fill="#800000"/>
<path transform="matrix(1,0,0,-1,19.842,121.88899)" stroke-width=".3985" stroke-linecap="butt" stroke-miterlimit="10" stroke-linejoin="miter" fill="none" stroke="#800000" d="M155.62427-85.0391V85.04042H176.03043V-85.0391ZM176.03043 85.04042"/>
<path transform="matrix(1,0,0,-1,19.842,121.88899)" d="M181.13632-85.0391V85.04042H201.54206V-85.0391ZM201.54206 85.04042" fill="#800000"/>
<path transform="matrix(1,0,0,-1,19.842,121.88899)" stroke-width=".3985" stroke-linecap="butt" stroke-miterlimit="10" stroke-linejoin="miter" fill="none" stroke="#800000" d="M181.13632-85.0391V85.04042H201.54206V-85.0391ZM201.54206 85.04042"/>
<path transform="matrix(1,0,0,-1,19.842,121.88899)" stroke-width=".3985" stroke-linecap="butt" stroke-miterlimit="10" stroke-linejoin="miter" fill="none" stroke="#000000" d="M137.7628 51.02478"/>
<use data-text="." xlink:href="#font_2_5" transform="matrix(9.9626,0,0,-9.9626,153.452,71.39099)"/>
<use data-text="." xlink:href="#font_2_5" transform="matrix(9.9626,0,0,-9.9626,156.2216,71.39099)"/>
<use data-text="." xlink:href="#font_2_5" transform="matrix(9.9626,0,0,-9.9626,158.99121,71.39099)"/>
<path transform="matrix(1,0,0,-1,19.842,121.88899)" stroke-width=".3985" stroke-linecap="butt" stroke-miterlimit="10" stroke-linejoin="miter" fill="none" stroke="#000000" d="M137.7628 0"/>
<use data-text="." xlink:href="#font_2_5" transform="matrix(9.9626,0,0,-9.9626,153.452,122.41499)"/>
<use data-text="." xlink:href="#font_2_5" transform="matrix(9.9626,0,0,-9.9626,156.2216,122.41499)"/>
<use data-text="." xlink:href="#font_2_5" transform="matrix(9.9626,0,0,-9.9626,158.99121,122.41499)"/>
<path transform="matrix(1,0,0,-1,19.842,121.88899)" stroke-width=".3985" stroke-linecap="butt" stroke-miterlimit="10" stroke-linejoin="miter" fill="none" stroke="#000000" d="M137.7628-51.02473"/>
<use data-text="." xlink:href="#font_2_5" transform="matrix(9.9626,0,0,-9.9626,153.452,173.439)"/>
<use data-text="." xlink:href="#font_2_5" transform="matrix(9.9626,0,0,-9.9626,156.2216,173.439)"/>
<use data-text="." xlink:href="#font_2_5" transform="matrix(9.9626,0,0,-9.9626,158.99121,173.439)"/>
<path transform="matrix(1,0,0,-1,19.842,121.88899)" stroke-width=".3985" stroke-linecap="butt" stroke-miterlimit="10" stroke-linejoin="miter" fill="none" stroke="#ffffff" d="M12.75674 .00131"/>
<use data-text="1" xlink:href="#font_2_6" transform="matrix(9.9626,0,0,-9.9626,30.107998,125.09799)" fill="#ffffff"/>
<path transform="matrix(1,0,0,-1,19.842,121.88899)" stroke-width=".3985" stroke-linecap="butt" stroke-miterlimit="10" stroke-linejoin="miter" fill="none" stroke="#ffffff" d="M38.2687 .00131"/>
<use data-text="2" xlink:href="#font_2_7" transform="matrix(9.9626,0,0,-9.9626,55.62,125.09799)" fill="#ffffff"/>
<path transform="matrix(1,0,0,-1,19.842,121.88899)" stroke-width=".3985" stroke-linecap="butt" stroke-miterlimit="10" stroke-linejoin="miter" fill="none" stroke="#ffffff" d="M63.78076 .00131"/>
<use data-text="3" xlink:href="#font_2_8" transform="matrix(9.9626,0,0,-9.9626,81.131,125.09799)" fill="#ffffff"/>
<path transform="matrix(1,0,0,-1,19.842,121.88899)" stroke-width=".3985" stroke-linecap="butt" stroke-miterlimit="10" stroke-linejoin="miter" fill="none" stroke="#ffffff" d="M89.29272 .00131"/>
<use data-text="4" xlink:href="#font_2_9" transform="matrix(9.9626,0,0,-9.9626,106.643009,125.09799)" fill="#ffffff"/>
<path transform="matrix(1,0,0,-1,19.842,121.88899)" stroke-width=".3985" stroke-linecap="butt" stroke-miterlimit="10" stroke-linejoin="miter" fill="none" stroke="#ffffff" d="M114.80476 .00131"/>
<use data-text="5" xlink:href="#font_2_10" transform="matrix(9.9626,0,0,-9.9626,132.155,125.09799)" fill="#ffffff"/>
<path transform="matrix(1,0,0,-1,19.842,121.88899)" stroke-width=".3985" stroke-linecap="butt" stroke-miterlimit="10" stroke-linejoin="miter" fill="none" stroke="#ffffff" d="M165.82869 .00131"/>
<use data-text="N" xlink:href="#font_2_12" transform="matrix(9.9626,0,0,-9.9626,177.782,125.29199)" fill="#ffffff"/>
<use data-text="-" xlink:href="#font_2_4" transform="matrix(9.9626,0,0,-9.9626,185.25395,125.29199)" fill="#ffffff"/>
<use data-text="1" xlink:href="#font_2_6" transform="matrix(9.9626,0,0,-9.9626,188.5715,125.29199)" fill="#ffffff"/>
<path transform="matrix(1,0,0,-1,19.842,121.88899)" stroke-width=".3985" stroke-linecap="butt" stroke-miterlimit="10" stroke-linejoin="miter" fill="none" stroke="#ffffff" d="M191.34075 .00131"/>
<use data-text="N" xlink:href="#font_2_12" transform="matrix(9.9626,0,0,-9.9626,207.444,125.29199)" fill="#ffffff"/>
<path transform="matrix(1,0,0,-1,19.842,121.88899)" stroke-width=".3985" stroke-linecap="butt" stroke-miterlimit="10" stroke-linejoin="miter" fill="none" stroke="#000000" d="M2.85083 106.30049H27.76546"/>
<path transform="matrix(-1,-0,0,1,22.69283,15.588501)" stroke-width=".3985" stroke-linecap="square" stroke-miterlimit="10" stroke-linejoin="miter" fill="none" stroke="#000000" d="M.09961-2.5903V2.5903"/>
<path transform="matrix(1,0,0,-1,47.60746,15.588501)" stroke-width=".3985" stroke-linecap="square" stroke-miterlimit="10" stroke-linejoin="miter" fill="none" stroke="#000000" d="M.09961-2.5903V2.5903"/>
<use data-text="d" xlink:href="#font_3_3" transform="matrix(9.9626,0,0,-9.9626,32.557,12.069992)"/>
<path transform="matrix(1,0,0,-1,19.842,121.88899)" stroke-width=".3985" stroke-linecap="butt" stroke-miterlimit="10" stroke-linejoin="miter" fill="none" stroke="#000000" d="M2.85083 90.99387H22.66193"/>
<path transform="matrix(-1,-0,0,1,22.69283,30.895119)" stroke-width=".3985" stroke-linecap="square" stroke-miterlimit="10" stroke-linejoin="miter" fill="none" stroke="#000000" d="M.09961-2.5903V2.5903"/>
<path transform="matrix(1,0,0,-1,42.50393,30.895119)" stroke-width=".3985" stroke-linecap="square" stroke-miterlimit="10" stroke-linejoin="miter" fill="none" stroke="#000000" d="M.09961-2.5903V2.5903"/>
<use data-text="w" xlink:href="#font_3_6" transform="matrix(9.9626,0,0,-9.9626,28.897999,27.376999)"/>
<path transform="matrix(1,0,0,-1,19.842,121.88899)" stroke-width=".3985" stroke-linecap="butt" stroke-miterlimit="10" stroke-linejoin="miter" fill="none" stroke="#000000" d="M22.9608 90.99387H27.76541"/>
<path transform="matrix(1,0,0,-1,47.607408,30.895119)" stroke-width=".3985" stroke-linecap="square" stroke-miterlimit="10" stroke-linejoin="miter" fill="none" stroke="#000000" d="M.09961-2.5903V2.5903"/>
<use data-text="k" xlink:href="#font_3_5" transform="matrix(9.9626,0,0,-9.9626,42.603998,27.376999)"/>
<path transform="matrix(1,0,0,-1,19.842,121.88899)" stroke-width=".3985" stroke-linecap="butt" stroke-miterlimit="10" stroke-linejoin="miter" fill="none" stroke="#000000" d="M-5.95221-84.74023V84.74287"/>
<path transform="matrix(0,1,1,0,13.88979,206.62921)" stroke-width=".3985" stroke-linecap="square" stroke-miterlimit="10" stroke-linejoin="miter" fill="none" stroke="#000000" d="M.09961-2.5903V2.5903"/>
<path transform="matrix(0,-1,-1,-0,13.88979,37.146127)" stroke-width=".3985" stroke-linecap="square" stroke-miterlimit="10" stroke-linejoin="miter" fill="none" stroke="#000000" d="M.09961-2.5903V2.5903"/>
<use data-text="h" xlink:href="#font_3_4" transform="matrix(9.9626,0,0,-9.9626,4.629999,82.826999)"/>
<path transform="matrix(1,0,0,-1,19.842,121.88899)" stroke-width=".3985" stroke-linecap="butt" stroke-miterlimit="10" stroke-linejoin="miter" fill="none" stroke="#000000" d="M2.85118-90.99254 125.00728-90.99113"/>
<path transform="matrix(-.99998,.00002,.00002,.99998,22.6932,212.88153)" stroke-width=".3985" stroke-linecap="square" stroke-miterlimit="10" stroke-linejoin="miter" fill="none" stroke="#000000" d="M.09961-2.5903V2.5903"/>
<use data-text="D" xlink:href="#font_3_1" transform="matrix(9.9626,0,0,-9.9626,60.17,223.871)"/>
<use data-text="=" xlink:href="#font_2_11" transform="matrix(9.9626,0,0,-9.9626,71.46758,223.871)"/>
<use data-text="(" xlink:href="#font_2_1" transform="matrix(9.9626,0,0,-9.9626,81.97813,223.871)"/>
<use data-text="N" xlink:href="#font_3_2" transform="matrix(9.9626,0,0,-9.9626,85.85358,223.871)"/>
<use data-text="&#x2212;" xlink:href="#font_4_1" transform="matrix(9.9626,0,0,-9.9626,97.1711,223.871)"/>
<use data-text="1" xlink:href="#font_2_6" transform="matrix(9.9626,0,0,-9.9626,107.1337,223.871)"/>
<use data-text=")" xlink:href="#font_2_2" transform="matrix(9.9626,0,0,-9.9626,112.115,223.871)"/>
<use data-text="d" xlink:href="#font_3_3" transform="matrix(9.9626,0,0,-9.9626,115.99045,223.871)"/>
<use data-text="+" xlink:href="#font_2_3" transform="matrix(9.9626,0,0,-9.9626,123.39266,223.871)"/>
<use data-text="w" xlink:href="#font_3_6" transform="matrix(9.9626,0,0,-9.9626,133.35527,223.871)"/>
<use data-text="&#x2248;" xlink:href="#font_4_2" transform="matrix(9.9626,0,0,-9.9626,143.52709,223.871)"/>
<use data-text="N" xlink:href="#font_3_2" transform="matrix(9.9626,0,0,-9.9626,154.04759,223.871)"/>
<use data-text="d" xlink:href="#font_3_3" transform="matrix(9.9626,0,0,-9.9626,163.14345,223.871)"/>
<path transform="matrix(1,0,0,-1,19.842,121.88899)" stroke-width=".3985" stroke-linecap="butt" stroke-dasharray="2.98883,2.98883" stroke-miterlimit="10" stroke-linejoin="miter" fill="none" stroke="#000000" d="M125.00536-90.98972H150.51773"/>
<path transform="matrix(1,0,0,-1,19.842,121.88899)" stroke-width=".3985" stroke-linecap="butt" stroke-miterlimit="10" stroke-linejoin="miter" fill="none" stroke="#000000" d="M150.5154-90.9883H201.2432"/>
<path transform="matrix(1,0,0,-1,221.08519,212.87729)" stroke-width=".3985" stroke-linecap="square" stroke-miterlimit="10" stroke-linejoin="miter" fill="none" stroke="#000000" d="M.09961-2.5903V2.5903"/>
</g>
</svg>
