<svg xmlns="http://www.w3.org/2000/svg" xmlns:xlink="http://www.w3.org/1999/xlink" xmlns:inkscape="http://www.inkscape.org/namespaces/inkscape" version="1.1" width="294.802" height="192.757" viewBox="0 0 294.802 192.757">
<defs>
<clipPath id="clip_1">
<path transform="matrix(1,0,0,-1,19.842,96.379009)" d="M-17.00781-93.54497V93.54497H272.1291V-93.54497ZM272.1291 93.54497"/>
</clipPath>
<path id="font_2_4" d="M.034988405 .6826172V.6516113H.05899048C.13598633 .6516113 .13798523 .64060977 .13798523 .6046295V.07795715C.13798523 .041992189 .13598633 .0309906 .05899048 .0309906H.034988405V0H.40098573C.56900027 0 .70700076 .1479187 .70700076 .33580018 .70700076 .52568057 .57199099 .6826172 .40098573 .6826172H.034988405M.272995 .0309906C.22599793 .0309906 .22399903 .037994386 .22399903 .07096863V.6116333C.22399903 .64460757 .22599793 .6516113 .272995 .6516113H.37298585C.43499757 .6516113 .5039978 .6296234 .5549927 .55867007 .59799197 .49969483 .6069946 .41375733 .6069946 .33580018 .6069946 .22486878 .58799746 .16490174 .5519867 .11593628 .5319977 .08895874 .47499085 .0309906 .37399293 .0309906H.272995Z"/>
<path id="font_2_8" d="M.11199951 .2524414C.117996219 .40126039 .20199585 .426239 .23599243 .426239 .33898927 .426239 .34899903 .2913971 .34899903 .2524414H.11199951M.11099243 .23144531H.3899994C.4119873 .23144531 .4149933 .23144531 .4149933 .2524414 .4149933 .35131837 .36099244 .4482422 .23599243 .4482422 .11999512 .4482422 .027999878 .34532167 .027999878 .22042847 .027999878 .08631897 .1329956-.0107421879 .24798584-.0107421879 .36999513-.0107421879 .4149933 .10032654 .4149933 .11933899 .4149933 .12934876 .40699769 .13134766 .4019928 .13134766 .3929901 .13134766 .3909912 .12535095 .3889923 .11734009 .35398866 .014251709 .2639923 .014251709 .2539978 .014251709 .20399475 .014251709 .1639862 .044281007 .14099121 .08131409 .11099243 .12934876 .11099243 .19540406 .11099243 .23144531Z"/>
<path id="font_2_9" d="M.1769867 .69433596 .032989503 .68333438V.6523285C.102996829 .6523285 .11099243 .6453247 .11099243 .5962982V.07601929C.11099243 .0309906 .099990848 .0309906 .032989503 .0309906V0C.06599426 .0009918213 .11898804 .0029907227 .14399719 .0029907227 .16899109 .0029907227 .21798706 .0009918213 .25498963 0V.0309906C.18798828 .0309906 .1769867 .0309906 .1769867 .07601929V.69433596Z"/>
<path id="font_2_6" d="M.33299256 .076156619C.33699037 .036132814 .3639984-.005859375 .41099549-.005859375 .43199159-.005859375 .49299623 .008132935 .49299623 .089157108V.14518738H.46798707V.089157108C.46798707 .031143189 .44299317 .025131226 .43199159 .025131226 .39898683 .025131226 .394989 .07015991 .394989 .075149539V.27514649C.394989 .31707765 .394989 .3560791 .35899354 .39312745 .31999208 .43223573 .269989 .4482422 .22200012 .4482422 .13999939 .4482422 .070999149 .40115357 .070999149 .335083 .070999149 .30508424 .09098816 .28808595 .116989139 .28808595 .14498902 .28808595 .16299439 .30807496 .16299439 .33407594 .16299439 .3460846 .1579895 .3790741 .11199951 .38008119 .13899231 .41519166 .18798828 .426239 .21998596 .426239 .2689972 .426239 .32598878 .38710023 .32598878 .29808045V.26123048C.2749939 .2582245 .20498657 .25523377 .14199829 .22523499 .066986087 .1912384 .041992189 .13923645 .041992189 .09524536 .041992189 .014251709 .13899231-.0107421879 .20199585-.0107421879 .2679901-.010864258 .31399537 .029129029 .33299256 .076156619M.32598878 .24023438V.1401825C.32598878 .045135499 .2539978 .011138916 .20899964 .011138916 .1599884 .011138916 .11898804 .046142579 .11898804 .09616089 .11898804 .15118408 .16099549 .23422241 .32598878 .24023438Z"/>
<path id="font_2_19" d="M.4149933 .33569337C.44099427 .39866639 .49198915 .3996582 .5079956 .3996582V.43066407C.4850006 .4286499 .45599366 .42765809 .43299867 .42765809 .4149933 .42765809 .36799623 .42965699 .34599305 .43066407V.3996582C.3769989 .39866639 .3929901 .3816681 .3929901 .35668946 .3929901 .34669496 .3919983 .34469605 .3869934 .33270265L.28599549 .08683777 .1749878 .35568238C.17098999 .36567689 .16899109 .36967469 .16899109 .3736725 .16899109 .3996582 .20599365 .3996582 .22499085 .3996582V.43066407C.19898987 .42965699 .1329956 .42765809 .115997318 .42765809 .08898926 .42765809 .04899597 .4286499 .018997193 .43066407V.3996582C.066986087 .3996582 .085998538 .3996582 .099990848 .36468507L.25-.00010681152C.24499512-.0131073 .23098755-.046081544 .22499085-.05908203 .20298767-.11405945 .1749878-.18309021 .11099243-.18309021 .10598755-.18309021 .08299255-.18309021 .06399536-.16506958 .09498596-.16105652 .102996829-.1390686 .102996829-.123062137 .102996829-.09706116 .083999637-.08105469 .06098938-.08105469 .040985109-.08105469 .018997193-.094055179 .018997193-.124069217 .018997193-.16906739 .06098938-.20507813 .11099243-.20507813 .17399597-.20507813 .21499634-.14805603 .23899842-.09106445L.4149933 .33569337Z"/>
<path id="font_2_7" d="M.17199707 .3773346V.69433596L.027999878 .68333438V.6523285C.09799194 .6523285 .10598755 .6453247 .10598755 .596344V0H.1309967C.13198853 .0009918213 .13999939 .01499939 .16699219 .062026979 .18199158 .039260866 .22399903-.0107421879 .2979889-.0107421879 .4169922-.0107421879 .5209961 .08728027 .5209961 .2163086 .5209961 .34335328 .4229889 .4423828 .30899049 .4423828 .23098755 .4423828 .18798828 .39535523 .17199707 .3773346M.1749878 .11407471V.32028199C.1749878 .33929444 .1749878 .3403015 .18598938 .35630799 .22499085 .41236878 .27999879 .42037965 .3039856 .42037965 .34899903 .42037965 .3849945 .39434815 .40899659 .35630799 .43499757 .3152771 .43798829 .2582245 .43798829 .21717835 .43798829 .18014527 .43598939 .12008667 .40699769 .075042728 .38598634 .044021608 .34799195 .010986328 .2939911 .010986328 .24899292 .010986328 .21299744 .035003663 .18899536 .07203674 .1749878 .093063358 .1749878 .096069339 .1749878 .11407471Z"/>
<path id="font_2_16" d="M.17298889 .3996582H.31599427V.43066407H.17298889V.6147156H.147995C.14698792 .5326996 .116989139 .42565919 .018997193 .42166139V.3996582H.10398865V.12416077C.10398865 .0012512207 .19699097-.0107421879 .23298645-.0107421879 .3039856-.0107421879 .33198548 .06021118 .33198548 .12416077V.18112183H.30699159V.12615967C.30699159 .052215578 .2769928 .014251709 .23999024 .014251709 .17298889 .014251709 .17298889 .10517883 .17298889 .122161868V.3996582Z"/>
<path id="font_2_18" d="M.61898806 .3357544C.6369934 .38568116 .66799929 .39866639 .7029877 .3996582V.43066407C.68099978 .4286499 .6519928 .42765809 .6299896 .42765809 .6009979 .42765809 .55599978 .42965699 .5369873 .43066407V.3996582C.57299807 .39866639 .59498599 .38069154 .59498599 .35173036 .59498599 .34573365 .59498599 .34375 .58999636 .33076478L.49899293 .075149539 .3999939 .35372926C.3959961 .3657074 .394989 .3677063 .394989 .37269593 .394989 .3996582 .43399049 .3996582 .45399476 .3996582V.43066407C.4249878 .42965699 .37399293 .42765809 .34999085 .42765809 .31999208 .42765809 .29100038 .4286499 .26098634 .43066407V.3996582C.2979889 .3996582 .31399537 .3976593 .32398988 .38467408 .32899476 .37869264 .33999635 .34873963 .34700013 .3297577L.26098634 .088134769 .1659851 .35472108C.16099549 .36671449 .16099549 .36869813 .16099549 .37269593 .16099549 .3996582 .19999695 .3996582 .21998596 .3996582V.43066407C.18998719 .42965699 .13398743 .42765809 .11099243 .42765809 .10699463 .42765809 .053985597 .4286499 .017990113 .43066407V.3996582C.067993167 .3996582 .07998657 .39666749 .09199524 .36471559L.21798706 .011245728C.22299195-.002746582 .22599793-.0107421879 .23899842-.0107421879 .2519989-.0107421879 .2539978-.0047454836 .25898744 .009246826L.3600006 .29182435 .46199037 .008255005C.46598817-.002746582 .46899415-.0107421879 .48199464-.0107421879 .49499513-.0107421879 .49798585-.0017547608 .5019989 .008255005L.61898806 .3357544Z"/>
<path id="font_2_11" d="M.10998535 .34429933V.076034549C.10998535 .0309906 .09899902 .0309906 .03199768 .0309906V0C.066986087 .0009918213 .117996219 .0029907227 .14498902 .0029907227 .17098999 .0029907227 .22299195 .0009918213 .25698854 0V.0309906C.18998719 .0309906 .1789856 .0309906 .1789856 .076034549V.2602234C.1789856 .36431886 .25 .42037965 .31399537 .42037965 .3769989 .42037965 .3880005 .36631776 .3880005 .30926515V.076034549C.3880005 .0309906 .3769989 .0309906 .30999757 .0309906V0C.34498597 .0009918213 .3959961 .0029907227 .4229889 .0029907227 .44898988 .0029907227 .5009918 .0009918213 .5349884 0V.0309906C.48298646 .0309906 .45799256 .0309906 .45700074 .061019899V.25221253C.45700074 .3383026 .45700074 .36932374 .42599488 .405365 .4119873 .42237855 .3789978 .4423828 .32099916 .4423828 .24798584 .4423828 .20098877 .39935304 .17298889 .33729554V.4423828L.03199768 .43138124V.40037538C.101989749 .4003601 .10998535 .39335633 .10998535 .34429933Z"/>
<path id="font_2_10" d="M.10998535 .34429933V.076034549C.10998535 .0309906 .09899902 .0309906 .03199768 .0309906V0C.066986087 .0009918213 .117996219 .0029907227 .14498902 .0029907227 .17098999 .0029907227 .22299195 .0009918213 .25698854 0V.0309906C.18998719 .0309906 .1789856 .0309906 .1789856 .076034549V.2602234C.1789856 .36431886 .25 .42037965 .31399537 .42037965 .3769989 .42037965 .3880005 .36631776 .3880005 .30926515V.076034549C.3880005 .0309906 .3769989 .0309906 .30999757 .0309906V0C.34498597 .0009918213 .3959961 .0029907227 .4229889 .0029907227 .44898988 .0029907227 .5009918 .0009918213 .5349884 0V.0309906C.46798707 .0309906 .45700074 .0309906 .45700074 .076034549V.2602234C.45700074 .36431886 .5279999 .42037965 .59199526 .42037965 .6549988 .42037965 .66600039 .36631776 .66600039 .30926515V.076034549C.66600039 .0309906 .6549988 .0309906 .58799746 .0309906V0C.6230011 .0009918213 .673996 .0029907227 .70098879 .0029907227 .72698977 .0029907227 .7789917 .0009918213 .8129883 0V.0309906C.7609863 .0309906 .73599246 .0309906 .7350006 .061019899V.25221253C.7350006 .3383026 .7350006 .36932374 .70399478 .405365 .6899872 .42237855 .6569977 .4423828 .598999 .4423828 .5149994 .4423828 .47099305 .38233949 .45399476 .34429933 .43998719 .43138124 .3659973 .4423828 .32099916 .4423828 .24798584 .4423828 .20098877 .39935304 .17298889 .33729554V.4423828L.03199768 .43138124V.40037538C.101989749 .4003601 .10998535 .39335633 .10998535 .34429933Z"/>
<path id="font_2_15" d="M.20799256 .19424439C.22999573 .19024658 .31199647 .17424011 .31199647 .102249149 .31199647 .051254274 .2769928 .011245728 .19898987 .011245728 .114990238 .011245728 .07899475 .06825256 .05999756 .15324402 .056991579 .1662445 .055999757 .17024231 .04598999 .17024231 .032989503 .17024231 .032989503 .16323853 .032989503 .14524842V.013244629C.032989503-.003753662 .032989503-.0107421879 .04399109-.0107421879 .04899597-.0107421879 .049987794-.009750366 .068984989 .009246826 .070999149 .011245728 .070999149 .013244629 .08898926 .03224182 .1329956-.009750366 .17799378-.0107421879 .19898987-.0107421879 .31399537-.0107421879 .3600006 .056243898 .3600006 .12825012 .3600006 .1812439 .32998658 .21124268 .31799317 .22323609 .2849884 .25523377 .24598694 .26324464 .20399475 .27124024 .147995 .28224183 .08099365 .2952423 .08099365 .35324098 .08099365 .38822938 .10699463 .42922975 .19299317 .42922975 .30299378 .42922975 .30799867 .3392334 .30999757 .3082428 .31098939 .2992401 .31999208 .2992401 .32199098 .2992401 .33499146 .2992401 .33499146 .304245 .33499146 .3232422V.4242401C.33499146 .4412384 .33499146 .4482422 .32398988 .4482422 .31900025 .4482422 .31698609 .4482422 .3039856 .43623353 .30099488 .43223573 .29100038 .42323304 .2869873 .42022706 .24899292 .4482422 .20799256 .4482422 .19299317 .4482422 .070999149 .4482422 .032989503 .38124085 .032989503 .3252411 .032989503 .29023744 .04899597 .26223756 .07598877 .24023438 .10798645 .21424866 .13598633 .2082367 .20799256 .19424439Z"/>
<path id="font_2_3" d="M.19198609 .052993776C.19198609 .08198547 .16799927 .10598755 .13899231 .10598755 .10998535 .10598755 .085998538 .08198547 .085998538 .052993776 .085998538 .023986817 .10998535 0 .13899231 0 .16799927 0 .19198609 .023986817 .19198609 .052993776Z"/>
<path id="font_2_5" d="M.58200076 .2578125H.5569916C.54599 .15588379 .5319977 .0309906 .35598756 .0309906H.27398683C.22698975 .0309906 .22499085 .037979127 .22499085 .07095337V.6036377C.22499085 .637619 .22499085 .6516113 .31999208 .6516113H.35299684V.6826172C.31698609 .6796112 .22599793 .6796112 .18499756 .6796112 .1459961 .6796112 .067993167 .6796112 .032989503 .6826172V.6516113H.056991579C.13398743 .6516113 .13598633 .64060977 .13598633 .6046295V.07795715C.13598633 .04197693 .13398743 .0309906 .056991579 .0309906H.032989503V0H.55400088L.58200076 .2578125Z"/>
<path id="font_2_12" d="M.47099305 .21424866C.47099305 .34223939 .37098695 .4482422 .25 .4482422 .125 .4482422 .027999878 .3392334 .027999878 .21424866 .027999878 .085250858 .13198853-.0107421879 .24899292-.0107421879 .36999513-.0107421879 .47099305 .087249759 .47099305 .21424866M.25 .014251709C.20698548 .014251709 .16299439 .035247804 .13598633 .08125305 .11099243 .12524414 .11099243 .18624878 .11099243 .22224427 .11099243 .26124574 .11099243 .31523133 .1349945 .35923768 .1619873 .40522767 .20899964 .426239 .24899292 .426239 .29299928 .426239 .33599855 .40423585 .3619995 .36123658 .3880005 .3182373 .3880005 .26023866 .3880005 .22224427 .3880005 .18624878 .3880005 .13224793 .3659973 .08824158 .34399415 .04324341 .2999878 .014251709 .25 .014251709Z"/>
<path id="font_2_14" d="M.16699219 .3323059V.4423828L.027999878 .43138124V.40037538C.09799194 .40037538 .10598755 .39337159 .10598755 .34431459V.076034549C.10598755 .0309906 .09498596 .0309906 .027999878 .0309906V0C.066986087 .0009918213 .11399841 .0029907227 .14199829 .0029907227 .18199158 .0029907227 .22898865 .0029907227 .2689972 0V.0309906H.24798584C.17399597 .0309906 .17199707 .042007448 .17199707 .07803345V.232193C.17199707 .33128358 .21398926 .42037965 .2899933 .42037965 .29699708 .42037965 .29899598 .42037965 .30099488 .41937257 .2979889 .41838075 .27799989 .4063568 .27799989 .38034059 .27799989 .35231019 .29899598 .33729554 .32099916 .33729554 .33898927 .33729554 .3639984 .3493042 .3639984 .3813324 .3639984 .41337586 .33299256 .4423828 .2899933 .4423828 .21699524 .4423828 .18099976 .37535096 .16699219 .3323059Z"/>
<path id="font_2_1" d="M.32998658 .40034486C.37599183 .40034486 .3829956 .38734437 .3829956 .34629823V.076034549C.3829956 .0309906 .37199403 .0309906 .30499269 .0309906V0C.33799745 .0009918213 .3909912 .0029907227 .41600038 .0029907227 .44099427 .0029907227 .48999024 .0009918213 .5269928 0V.0309906C.45999146 .0309906 .44898988 .0309906 .44898988 .076034549V.44335938L.32299806 .4343567C.30699159 .4333496 .30599977 .4323578 .30499269 .4323578 .30299378 .43066407 .30099488 .43066407 .2869873 .43066407H.16899109V.54437258C.16899109 .6434479 .25498963 .68307498 .31698609 .68307498 .34700013 .68307498 .3829956 .673172 .40299989 .65042117 .3619995 .6484375 .35598756 .6204529 .35598756 .6044464 .35598756 .5714569 .38198854 .5584564 .40098573 .5584564 .42399598 .5584564 .44699098 .57444766 .44699098 .6044464 .44699098 .6632843 .3919983 .7050781 .31799317 .7050781 .22499085 .7050781 .10598755 .65437319 .10598755 .5453644V.43066407H.026992798V.3996582H.10598755V.07595825C.10598755 .0309906 .09498596 .0309906 .027999878 .0309906V0C.06098938 .0009918213 .11399841 .0029907227 .13899231 .0029907227 .1639862 .0029907227 .21299744 .0009918213 .25 0V.0309906C.18299866 .0309906 .17199707 .0309906 .17199707 .07595825V.3996582L.32998658 .40034486Z"/>
<path id="font_2_2" d="M.20298767 .0009918213C.20298767 .06498718 .1789856 .10598755 .13899231 .10598755 .10398865 .10598755 .085998538 .07899475 .085998538 .052993776 .085998538 .026992798 .102996829 0 .13899231 0 .15499878 0 .16699219 .005996704 .1769867 .01399231L.1789856 .015991211C.17999268 .015991211 .18099976 .01499939 .18099976 .0009918213 .18099976-.06314087 .15299988-.12426758 .10899353-.17137146 .102996829-.17736817 .101989749-.17835999 .101989749-.18237305 .101989749-.18936157 .10699463-.19335938 .11199951-.19335938 .12399292-.19335938 .20298767-.11424255 .20298767 .0009918213Z"/>
<path id="font_2_17" d="M.3909912 .07926941V-.0107421879L.5349884 .00024414063V.03125C.46499635 .03125 .45700074 .038253786 .45700074 .087265018V.4423828L.30999757 .43138124V.40037538C.37998963 .40037538 .3880005 .39337159 .3880005 .34436036V.16630554C.3880005 .07926941 .33999635 .011245728 .2669983 .011245728 .18299866 .011245728 .1789856 .058258058 .1789856 .11027527V.4423828L.03199768 .43138124V.40037538C.10998535 .40037538 .10998535 .39736939 .10998535 .3083496V.15829468C.10998535 .08027649 .10998535-.0107421879 .2619934-.0107421879 .31799317-.0107421879 .3619995 .01725769 .3909912 .07926941Z"/>
<path id="font_2_13" d="M.17199707 .37635804V.4423828L.027999878 .43138124V.40037538C.09899902 .40037538 .10598755 .3943634 .10598755 .35035707V-.11816406C.10598755-.16334534 .09498596-.16334534 .027999878-.16334534V-.19433594C.06199646-.19334412 .11399841-.19134522 .13999939-.19134522 .16699219-.19134522 .21798706-.19334412 .25299073-.19433594V-.16334534C.18598938-.16334534 .1749878-.16334534 .1749878-.11816406V.05026245 .059265138C.17999268 .043258668 .22200012-.0107421879 .2979889-.0107421879 .4169922-.0107421879 .5209961 .08728027 .5209961 .2163086 .5209961 .34335328 .42399598 .4423828 .31199647 .4423828 .23399353 .4423828 .19198609 .39837647 .17199707 .37635804M.1749878 .11428833V.33735658C.20399475 .3883667 .25299073 .41737367 .3039856 .41737367 .3769989 .41737367 .43798829 .3293457 .43798829 .2163086 .43798829 .09527588 .36799623 .011245728 .2939911 .011245728 .2539978 .011245728 .21598816 .03125 .18899536 .072265628 .1749878 .09327698 .1749878 .0942688 .1749878 .11428833Z"/>
</defs>
<g clip-path="url(#clip_1)">
<path transform="matrix(1,0,0,-1,19.842,96.379009)" d="M0-93.54497V93.54497H272.1291V-93.54497ZM272.1291 93.54497" fill="#c7eafb"/>
<path transform="matrix(1,0,0,-1,19.842,96.379009)" d="M-17.00781-93.54497V93.54497H0V-93.54497ZM0 93.54497" fill="#b2b3b2"/>
<path transform="matrix(1,0,0,-1,19.842,96.379009)" d="M-4.25215 54.84956V72.70703H0V54.84956ZM0 72.70703" fill="#800000"/>
<path transform="matrix(1,0,0,-1,19.842,96.379009)" stroke-width=".3985" stroke-linecap="butt" stroke-miterlimit="10" stroke-linejoin="miter" fill="none" stroke="#800000" d="M-4.25215 54.84956V72.70703H0V54.84956ZM0 72.70703"/>
<path transform="matrix(1,0,0,-1,19.842,96.379009)" stroke-width=".79701" stroke-linecap="butt" stroke-miterlimit="10" stroke-linejoin="miter" fill="none" stroke="#800000" d="M29.76466 54.85043C31.567 61.57695 31.567 65.98166 29.76466 72.70816"/>
<path transform="matrix(1,0,0,-1,19.842,96.379009)" stroke-width=".79701" stroke-linecap="butt" stroke-miterlimit="10" stroke-linejoin="miter" fill="none" stroke="#800000" d="M38.26921 54.85043C40.07155 61.57695 40.07155 65.98166 38.26921 72.70816"/>
<path transform="matrix(1,0,0,-1,19.842,96.379009)" stroke-width=".79701" stroke-linecap="butt" stroke-miterlimit="10" stroke-linejoin="miter" fill="none" stroke="#800000" d="M46.77376 54.85043C48.57611 61.57695 48.57611 65.98166 46.77376 72.70816"/>
<path transform="matrix(1,0,0,-1,19.842,96.379009)" d="M-4.25215 29.33797V47.19543H0V29.33797ZM0 47.19543" fill="#800000"/>
<path transform="matrix(1,0,0,-1,19.842,96.379009)" stroke-width=".3985" stroke-linecap="butt" stroke-miterlimit="10" stroke-linejoin="miter" fill="none" stroke="#800000" d="M-4.25215 29.33797V47.19543H0V29.33797ZM0 47.19543"/>
<path transform="matrix(1,0,0,-1,19.842,96.379009)" stroke-width=".79701" stroke-linecap="butt" stroke-miterlimit="10" stroke-linejoin="miter" fill="none" stroke="#800000" d="M42.52019 29.33842C44.32253 36.06494 44.32253 40.46965 42.52019 47.19617"/>
<path transform="matrix(1,0,0,-1,19.842,96.379009)" stroke-width=".79701" stroke-linecap="butt" stroke-miterlimit="10" stroke-linejoin="miter" fill="none" stroke="#800000" d="M51.02473 29.33842C52.82709 36.06494 52.82709 40.46965 51.02473 47.19617"/>
<path transform="matrix(1,0,0,-1,19.842,96.379009)" stroke-width=".79701" stroke-linecap="butt" stroke-miterlimit="10" stroke-linejoin="miter" fill="none" stroke="#800000" d="M59.52933 29.33842C61.33168 36.06494 61.33168 40.46965 59.52933 47.19617"/>
<path transform="matrix(1,0,0,-1,19.842,96.379009)" d="M-4.25215 3.82632V21.68379H0V3.82632ZM0 21.68379" fill="#800000"/>
<path transform="matrix(1,0,0,-1,19.842,96.379009)" stroke-width=".3985" stroke-linecap="butt" stroke-miterlimit="10" stroke-linejoin="miter" fill="none" stroke="#800000" d="M-4.25215 3.82632V21.68379H0V3.82632ZM0 21.68379"/>
<path transform="matrix(1,0,0,-1,19.842,96.379009)" stroke-width=".79701" stroke-linecap="butt" stroke-miterlimit="10" stroke-linejoin="miter" fill="none" stroke="#800000" d="M55.27571 3.82642C57.07805 10.55293 57.07805 14.95764 55.27571 21.68416"/>
<path transform="matrix(1,0,0,-1,19.842,96.379009)" stroke-width=".79701" stroke-linecap="butt" stroke-miterlimit="10" stroke-linejoin="miter" fill="none" stroke="#800000" d="M63.7803 3.82642C65.58266 10.55293 65.58266 14.95764 63.7803 21.68416"/>
<path transform="matrix(1,0,0,-1,19.842,96.379009)" stroke-width=".79701" stroke-linecap="butt" stroke-miterlimit="10" stroke-linejoin="miter" fill="none" stroke="#800000" d="M72.28485 3.82642C74.0872 10.55293 74.0872 14.95764 72.28485 21.68416"/>
<path transform="matrix(1,0,0,-1,19.842,96.379009)" d="M-4.25215-21.68507V-3.8276H0V-21.68507ZM0-3.8276" fill="#800000"/>
<path transform="matrix(1,0,0,-1,19.842,96.379009)" stroke-width=".3985" stroke-linecap="butt" stroke-miterlimit="10" stroke-linejoin="miter" fill="none" stroke="#800000" d="M-4.25215-21.68507V-3.8276H0V-21.68507ZM0-3.8276"/>
<path transform="matrix(1,0,0,-1,19.842,96.379009)" stroke-width=".79701" stroke-linecap="butt" stroke-miterlimit="10" stroke-linejoin="miter" fill="none" stroke="#800000" d="M68.03128-21.68542C69.83362-14.95892 69.83362-10.55421 68.03128-3.8277"/>
<path transform="matrix(1,0,0,-1,19.842,96.379009)" stroke-width=".79701" stroke-linecap="butt" stroke-miterlimit="10" stroke-linejoin="miter" fill="none" stroke="#800000" d="M76.53583-21.68542C78.33818-14.95892 78.33818-10.55421 76.53583-3.8277"/>
<path transform="matrix(1,0,0,-1,19.842,96.379009)" stroke-width=".79701" stroke-linecap="butt" stroke-miterlimit="10" stroke-linejoin="miter" fill="none" stroke="#800000" d="M85.04042-21.68542C86.84277-14.95892 86.84277-10.55421 85.04042-3.8277"/>
<path transform="matrix(1,0,0,-1,19.842,96.379009)" d="M-4.25215-47.19675V-29.3393H0V-47.19675ZM0-29.3393" fill="#800000"/>
<path transform="matrix(1,0,0,-1,19.842,96.379009)" stroke-width=".3985" stroke-linecap="butt" stroke-miterlimit="10" stroke-linejoin="miter" fill="none" stroke="#800000" d="M-4.25215-47.19675V-29.3393H0V-47.19675ZM0-29.3393"/>
<path transform="matrix(1,0,0,-1,19.842,96.379009)" stroke-width=".79701" stroke-linecap="butt" stroke-miterlimit="10" stroke-linejoin="miter" fill="none" stroke="#800000" d="M80.7868-47.19748C82.58914-40.47098 82.58914-36.06625 80.7868-29.33975"/>
<path transform="matrix(1,0,0,-1,19.842,96.379009)" stroke-width=".79701" stroke-linecap="butt" stroke-miterlimit="10" stroke-linejoin="miter" fill="none" stroke="#800000" d="M89.2914-47.19748C91.09375-40.47098 91.09375-36.06625 89.2914-29.33975"/>
<path transform="matrix(1,0,0,-1,19.842,96.379009)" stroke-width=".79701" stroke-linecap="butt" stroke-miterlimit="10" stroke-linejoin="miter" fill="none" stroke="#800000" d="M97.79594-47.19748C99.5983-40.47098 99.5983-36.06625 97.79594-29.33975"/>
<path transform="matrix(1,0,0,-1,19.842,96.379009)" d="M-4.25215-72.7083V-54.85085H0V-72.7083ZM0-54.85085" fill="#800000"/>
<path transform="matrix(1,0,0,-1,19.842,96.379009)" stroke-width=".3985" stroke-linecap="butt" stroke-miterlimit="10" stroke-linejoin="miter" fill="none" stroke="#800000" d="M-4.25215-72.7083V-54.85085H0V-72.7083ZM0-54.85085"/>
<path transform="matrix(1,0,0,-1,19.842,96.379009)" stroke-width=".79701" stroke-linecap="butt" stroke-miterlimit="10" stroke-linejoin="miter" fill="none" stroke="#800000" d="M93.54237-72.70944C95.34471-65.98293 95.34471-61.57822 93.54237-54.85172"/>
<path transform="matrix(1,0,0,-1,19.842,96.379009)" stroke-width=".79701" stroke-linecap="butt" stroke-miterlimit="10" stroke-linejoin="miter" fill="none" stroke="#800000" d="M102.04692-72.70944C103.84927-65.98293 103.84927-61.57822 102.04692-54.85172"/>
<path transform="matrix(1,0,0,-1,19.842,96.379009)" stroke-width=".79701" stroke-linecap="butt" stroke-miterlimit="10" stroke-linejoin="miter" fill="none" stroke="#800000" d="M110.55147-72.70944C112.35382-65.98293 112.35382-61.57822 110.55147-54.85172"/>
<use data-text="D" xlink:href="#font_2_4" transform="matrix(9.9626,0,0,-9.9626,106.649,15.824005)"/>
<use data-text="e" xlink:href="#font_2_8" transform="matrix(9.9626,0,0,-9.9626,114.26043,15.824005)"/>
<use data-text="l" xlink:href="#font_2_9" transform="matrix(9.9626,0,0,-9.9626,118.68382,15.824005)"/>
<use data-text="a" xlink:href="#font_2_6" transform="matrix(9.9626,0,0,-9.9626,121.45342,15.824005)"/>
<use data-text="y" xlink:href="#font_2_19" transform="matrix(9.9626,0,0,-9.9626,126.15577,15.824005)"/>
<use data-text="b" xlink:href="#font_2_7" transform="matrix(9.9626,0,0,-9.9626,134.74353,15.824005)"/>
<use data-text="e" xlink:href="#font_2_8" transform="matrix(9.9626,0,0,-9.9626,140.55173,15.824005)"/>
<use data-text="t" xlink:href="#font_2_16" transform="matrix(9.9626,0,0,-9.9626,144.97513,15.824005)"/>
<use data-text="w" xlink:href="#font_2_18" transform="matrix(9.9626,0,0,-9.9626,148.58159,15.824005)"/>
<use data-text="e" xlink:href="#font_2_8" transform="matrix(9.9626,0,0,-9.9626,155.49564,15.824005)"/>
<use data-text="e" xlink:href="#font_2_8" transform="matrix(9.9626,0,0,-9.9626,159.91904,15.824005)"/>
<use data-text="n" xlink:href="#font_2_11" transform="matrix(9.9626,0,0,-9.9626,164.34244,15.824005)"/>
<use data-text="e" xlink:href="#font_2_8" transform="matrix(9.9626,0,0,-9.9626,173.19919,15.824005)"/>
<use data-text="l" xlink:href="#font_2_9" transform="matrix(9.9626,0,0,-9.9626,177.62259,15.824005)"/>
<use data-text="e" xlink:href="#font_2_8" transform="matrix(9.9626,0,0,-9.9626,180.3922,15.824005)"/>
<use data-text="m" xlink:href="#font_2_10" transform="matrix(9.9626,0,0,-9.9626,184.8156,15.824005)"/>
<use data-text="e" xlink:href="#font_2_8" transform="matrix(9.9626,0,0,-9.9626,193.11444,15.824005)"/>
<use data-text="n" xlink:href="#font_2_11" transform="matrix(9.9626,0,0,-9.9626,197.53784,15.824005)"/>
<use data-text="t" xlink:href="#font_2_16" transform="matrix(9.9626,0,0,-9.9626,202.7981,15.824005)"/>
<use data-text="s" xlink:href="#font_2_15" transform="matrix(9.9626,0,0,-9.9626,206.67356,15.824005)"/>
<use data-text="." xlink:href="#font_2_3" transform="matrix(9.9626,0,0,-9.9626,210.60878,15.824005)"/>
<use data-text="L" xlink:href="#font_2_5" transform="matrix(9.9626,0,0,-9.9626,106.649,27.779007)"/>
<use data-text="o" xlink:href="#font_2_12" transform="matrix(9.9626,0,0,-9.9626,112.875629,27.779007)"/>
<use data-text="w" xlink:href="#font_2_18" transform="matrix(9.9626,0,0,-9.9626,117.57797,27.779007)"/>
<use data-text="e" xlink:href="#font_2_8" transform="matrix(9.9626,0,0,-9.9626,124.49202,27.779007)"/>
<use data-text="r" xlink:href="#font_2_14" transform="matrix(9.9626,0,0,-9.9626,128.91542,27.779007)"/>
<use data-text="e" xlink:href="#font_2_8" transform="matrix(9.9626,0,0,-9.9626,136.14827,27.779007)"/>
<use data-text="l" xlink:href="#font_2_9" transform="matrix(9.9626,0,0,-9.9626,140.57167,27.779007)"/>
<use data-text="e" xlink:href="#font_2_8" transform="matrix(9.9626,0,0,-9.9626,143.34128,27.779007)"/>
<use data-text="m" xlink:href="#font_2_10" transform="matrix(9.9626,0,0,-9.9626,147.76468,27.779007)"/>
<use data-text="e" xlink:href="#font_2_8" transform="matrix(9.9626,0,0,-9.9626,156.06352,27.779007)"/>
<use data-text="n" xlink:href="#font_2_11" transform="matrix(9.9626,0,0,-9.9626,160.48693,27.779007)"/>
<use data-text="t" xlink:href="#font_2_16" transform="matrix(9.9626,0,0,-9.9626,165.74718,27.779007)"/>
<use data-text="f" xlink:href="#font_2_1" transform="matrix(9.9626,0,0,-9.9626,172.94019,27.779007)"/>
<use data-text="r" xlink:href="#font_2_14" transform="matrix(9.9626,0,0,-9.9626,178.47939,27.779007)"/>
<use data-text="s" xlink:href="#font_2_15" transform="matrix(9.9626,0,0,-9.9626,182.38472,27.779007)"/>
<use data-text="t" xlink:href="#font_2_16" transform="matrix(9.9626,0,0,-9.9626,186.30998,27.779007)"/>
<use data-text="," xlink:href="#font_2_2" transform="matrix(9.9626,0,0,-9.9626,190.18544,27.779007)"/>
<use data-text="u" xlink:href="#font_2_17" transform="matrix(9.9626,0,0,-9.9626,196.28256,27.779007)"/>
<use data-text="p" xlink:href="#font_2_13" transform="matrix(9.9626,0,0,-9.9626,201.82176,27.779007)"/>
<use data-text="p" xlink:href="#font_2_13" transform="matrix(9.9626,0,0,-9.9626,207.36096,27.779007)"/>
<use data-text="e" xlink:href="#font_2_8" transform="matrix(9.9626,0,0,-9.9626,213.16916,27.779007)"/>
<use data-text="r" xlink:href="#font_2_14" transform="matrix(9.9626,0,0,-9.9626,217.59256,27.779007)"/>
<use data-text="e" xlink:href="#font_2_8" transform="matrix(9.9626,0,0,-9.9626,224.82541,27.779007)"/>
<use data-text="l" xlink:href="#font_2_9" transform="matrix(9.9626,0,0,-9.9626,229.24881,27.779007)"/>
<use data-text="e" xlink:href="#font_2_8" transform="matrix(9.9626,0,0,-9.9626,232.01842,27.779007)"/>
<use data-text="m" xlink:href="#font_2_10" transform="matrix(9.9626,0,0,-9.9626,236.44182,27.779007)"/>
<use data-text="e" xlink:href="#font_2_8" transform="matrix(9.9626,0,0,-9.9626,244.74066,27.779007)"/>
<use data-text="n" xlink:href="#font_2_11" transform="matrix(9.9626,0,0,-9.9626,249.16407,27.779007)"/>
<use data-text="t" xlink:href="#font_2_16" transform="matrix(9.9626,0,0,-9.9626,254.42432,27.779007)"/>
<use data-text="l" xlink:href="#font_2_9" transform="matrix(9.9626,0,0,-9.9626,261.6173,27.779007)"/>
<use data-text="a" xlink:href="#font_2_6" transform="matrix(9.9626,0,0,-9.9626,264.3869,27.779007)"/>
<use data-text="s" xlink:href="#font_2_15" transform="matrix(9.9626,0,0,-9.9626,269.3682,27.779007)"/>
<use data-text="t" xlink:href="#font_2_16" transform="matrix(9.9626,0,0,-9.9626,273.29347,27.779007)"/>
<use data-text="." xlink:href="#font_2_3" transform="matrix(9.9626,0,0,-9.9626,277.1689,27.779007)"/>
</g>
</svg>
