<svg xmlns="http://www.w3.org/2000/svg" xmlns:xlink="http://www.w3.org/1999/xlink" xmlns:inkscape="http://www.inkscape.org/namespaces/inkscape" version="1.1" width="320.316" height="209.763" viewBox="0 0 320.316 209.763">
<defs>
<clipPath id="clip_1">
<path transform="matrix(1,0,0,-1,11.339,121.889)" d="M-8.50455-85.04042V119.05606H306.14604V-85.04042ZM306.14604 119.05606"/>
</clipPath>
<path id="font_2_4" d="M.034988405 .6826172V.6516113H.05899048C.13598633 .6516113 .13798523 .64060977 .13798523 .6046295V.07795715C.13798523 .041992189 .13598633 .0309906 .05899048 .0309906H.034988405V0H.40098573C.56900027 0 .70700076 .1479187 .70700076 .33580018 .70700076 .52568057 .57199099 .6826172 .40098573 .6826172H.034988405M.272995 .0309906C.22599793 .0309906 .22399903 .037994386 .22399903 .07096863V.6116333C.22399903 .64460757 .22599793 .6516113 .272995 .6516113H.37298585C.43499757 .6516113 .5039978 .6296234 .5549927 .55867007 .59799197 .49969483 .6069946 .41375733 .6069946 .33580018 .6069946 .22486878 .58799746 .16490174 .5519867 .11593628 .5319977 .08895874 .47499085 .0309906 .37399293 .0309906H.272995Z"/>
<path id="font_2_8" d="M.11199951 .2524414C.117996219 .40126039 .20199585 .426239 .23599243 .426239 .33898927 .426239 .34899903 .2913971 .34899903 .2524414H.11199951M.11099243 .23144531H.3899994C.4119873 .23144531 .4149933 .23144531 .4149933 .2524414 .4149933 .35131837 .36099244 .4482422 .23599243 .4482422 .11999512 .4482422 .027999878 .34532167 .027999878 .22042847 .027999878 .08631897 .1329956-.0107421879 .24798584-.0107421879 .36999513-.0107421879 .4149933 .10032654 .4149933 .11933899 .4149933 .12934876 .40699769 .13134766 .4019928 .13134766 .3929901 .13134766 .3909912 .12535095 .3889923 .11734009 .35398866 .014251709 .2639923 .014251709 .2539978 .014251709 .20399475 .014251709 .1639862 .044281007 .14099121 .08131409 .11099243 .12934876 .11099243 .19540406 .11099243 .23144531Z"/>
<path id="font_2_9" d="M.1769867 .69433596 .032989503 .68333438V.6523285C.102996829 .6523285 .11099243 .6453247 .11099243 .5962982V.07601929C.11099243 .0309906 .099990848 .0309906 .032989503 .0309906V0C.06599426 .0009918213 .11898804 .0029907227 .14399719 .0029907227 .16899109 .0029907227 .21798706 .0009918213 .25498963 0V.0309906C.18798828 .0309906 .1769867 .0309906 .1769867 .07601929V.69433596Z"/>
<path id="font_2_6" d="M.33299256 .076156619C.33699037 .036132814 .3639984-.005859375 .41099549-.005859375 .43199159-.005859375 .49299623 .008132935 .49299623 .089157108V.14518738H.46798707V.089157108C.46798707 .031143189 .44299317 .025131226 .43199159 .025131226 .39898683 .025131226 .394989 .07015991 .394989 .075149539V.27514649C.394989 .31707765 .394989 .3560791 .35899354 .39312745 .31999208 .43223573 .269989 .4482422 .22200012 .4482422 .13999939 .4482422 .070999149 .40115357 .070999149 .335083 .070999149 .30508424 .09098816 .28808595 .116989139 .28808595 .14498902 .28808595 .16299439 .30807496 .16299439 .33407594 .16299439 .3460846 .1579895 .3790741 .11199951 .38008119 .13899231 .41519166 .18798828 .426239 .21998596 .426239 .2689972 .426239 .32598878 .38710023 .32598878 .29808045V.26123048C.2749939 .2582245 .20498657 .25523377 .14199829 .22523499 .066986087 .1912384 .041992189 .13923645 .041992189 .09524536 .041992189 .014251709 .13899231-.0107421879 .20199585-.0107421879 .2679901-.010864258 .31399537 .029129029 .33299256 .076156619M.32598878 .24023438V.1401825C.32598878 .045135499 .2539978 .011138916 .20899964 .011138916 .1599884 .011138916 .11898804 .046142579 .11898804 .09616089 .11898804 .15118408 .16099549 .23422241 .32598878 .24023438Z"/>
<path id="font_2_19" d="M.4149933 .33569337C.44099427 .39866639 .49198915 .3996582 .5079956 .3996582V.43066407C.4850006 .4286499 .45599366 .42765809 .43299867 .42765809 .4149933 .42765809 .36799623 .42965699 .34599305 .43066407V.3996582C.3769989 .39866639 .3929901 .3816681 .3929901 .35668946 .3929901 .34669496 .3919983 .34469605 .3869934 .33270265L.28599549 .08683777 .1749878 .35568238C.17098999 .36567689 .16899109 .36967469 .16899109 .3736725 .16899109 .3996582 .20599365 .3996582 .22499085 .3996582V.43066407C.19898987 .42965699 .1329956 .42765809 .115997318 .42765809 .08898926 .42765809 .04899597 .4286499 .018997193 .43066407V.3996582C.066986087 .3996582 .085998538 .3996582 .099990848 .36468507L.25-.00010681152C.24499512-.0131073 .23098755-.046081544 .22499085-.05908203 .20298767-.11405945 .1749878-.18309021 .11099243-.18309021 .10598755-.18309021 .08299255-.18309021 .06399536-.16506958 .09498596-.16105652 .102996829-.1390686 .102996829-.123062137 .102996829-.09706116 .083999637-.08105469 .06098938-.08105469 .040985109-.08105469 .018997193-.094055179 .018997193-.124069217 .018997193-.16906739 .06098938-.20507813 .11099243-.20507813 .17399597-.20507813 .21499634-.14805603 .23899842-.09106445L.4149933 .33569337Z"/>
<path id="font_2_7" d="M.17199707 .3773346V.69433596L.027999878 .68333438V.6523285C.09799194 .6523285 .10598755 .6453247 .10598755 .596344V0H.1309967C.13198853 .0009918213 .13999939 .01499939 .16699219 .062026979 .18199158 .039260866 .22399903-.0107421879 .2979889-.0107421879 .4169922-.0107421879 .5209961 .08728027 .5209961 .2163086 .5209961 .34335328 .4229889 .4423828 .30899049 .4423828 .23098755 .4423828 .18798828 .39535523 .17199707 .3773346M.1749878 .11407471V.32028199C.1749878 .33929444 .1749878 .3403015 .18598938 .35630799 .22499085 .41236878 .27999879 .42037965 .3039856 .42037965 .34899903 .42037965 .3849945 .39434815 .40899659 .35630799 .43499757 .3152771 .43798829 .2582245 .43798829 .21717835 .43798829 .18014527 .43598939 .12008667 .40699769 .075042728 .38598634 .044021608 .34799195 .010986328 .2939911 .010986328 .24899292 .010986328 .21299744 .035003663 .18899536 .07203674 .1749878 .093063358 .1749878 .096069339 .1749878 .11407471Z"/>
<path id="font_2_16" d="M.17298889 .3996582H.31599427V.43066407H.17298889V.6147156H.147995C.14698792 .5326996 .116989139 .42565919 .018997193 .42166139V.3996582H.10398865V.12416077C.10398865 .0012512207 .19699097-.0107421879 .23298645-.0107421879 .3039856-.0107421879 .33198548 .06021118 .33198548 .12416077V.18112183H.30699159V.12615967C.30699159 .052215578 .2769928 .014251709 .23999024 .014251709 .17298889 .014251709 .17298889 .10517883 .17298889 .122161868V.3996582Z"/>
<path id="font_2_18" d="M.61898806 .3357544C.6369934 .38568116 .66799929 .39866639 .7029877 .3996582V.43066407C.68099978 .4286499 .6519928 .42765809 .6299896 .42765809 .6009979 .42765809 .55599978 .42965699 .5369873 .43066407V.3996582C.57299807 .39866639 .59498599 .38069154 .59498599 .35173036 .59498599 .34573365 .59498599 .34375 .58999636 .33076478L.49899293 .075149539 .3999939 .35372926C.3959961 .3657074 .394989 .3677063 .394989 .37269593 .394989 .3996582 .43399049 .3996582 .45399476 .3996582V.43066407C.4249878 .42965699 .37399293 .42765809 .34999085 .42765809 .31999208 .42765809 .29100038 .4286499 .26098634 .43066407V.3996582C.2979889 .3996582 .31399537 .3976593 .32398988 .38467408 .32899476 .37869264 .33999635 .34873963 .34700013 .3297577L.26098634 .088134769 .1659851 .35472108C.16099549 .36671449 .16099549 .36869813 .16099549 .37269593 .16099549 .3996582 .19999695 .3996582 .21998596 .3996582V.43066407C.18998719 .42965699 .13398743 .42765809 .11099243 .42765809 .10699463 .42765809 .053985597 .4286499 .017990113 .43066407V.3996582C.067993167 .3996582 .07998657 .39666749 .09199524 .36471559L.21798706 .011245728C.22299195-.002746582 .22599793-.0107421879 .23899842-.0107421879 .2519989-.0107421879 .2539978-.0047454836 .25898744 .009246826L.3600006 .29182435 .46199037 .008255005C.46598817-.002746582 .46899415-.0107421879 .48199464-.0107421879 .49499513-.0107421879 .49798585-.0017547608 .5019989 .008255005L.61898806 .3357544Z"/>
<path id="font_2_11" d="M.10998535 .34429933V.076034549C.10998535 .0309906 .09899902 .0309906 .03199768 .0309906V0C.066986087 .0009918213 .117996219 .0029907227 .14498902 .0029907227 .17098999 .0029907227 .22299195 .0009918213 .25698854 0V.0309906C.18998719 .0309906 .1789856 .0309906 .1789856 .076034549V.2602234C.1789856 .36431886 .25 .42037965 .31399537 .42037965 .3769989 .42037965 .3880005 .36631776 .3880005 .30926515V.076034549C.3880005 .0309906 .3769989 .0309906 .30999757 .0309906V0C.34498597 .0009918213 .3959961 .0029907227 .4229889 .0029907227 .44898988 .0029907227 .5009918 .0009918213 .5349884 0V.0309906C.48298646 .0309906 .45799256 .0309906 .45700074 .061019899V.25221253C.45700074 .3383026 .45700074 .36932374 .42599488 .405365 .4119873 .42237855 .3789978 .4423828 .32099916 .4423828 .24798584 .4423828 .20098877 .39935304 .17298889 .33729554V.4423828L.03199768 .43138124V.40037538C.101989749 .4003601 .10998535 .39335633 .10998535 .34429933Z"/>
<path id="font_2_10" d="M.10998535 .34429933V.076034549C.10998535 .0309906 .09899902 .0309906 .03199768 .0309906V0C.066986087 .0009918213 .117996219 .0029907227 .14498902 .0029907227 .17098999 .0029907227 .22299195 .0009918213 .25698854 0V.0309906C.18998719 .0309906 .1789856 .0309906 .1789856 .076034549V.2602234C.1789856 .36431886 .25 .42037965 .31399537 .42037965 .3769989 .42037965 .3880005 .36631776 .3880005 .30926515V.076034549C.3880005 .0309906 .3769989 .0309906 .30999757 .0309906V0C.34498597 .0009918213 .3959961 .0029907227 .4229889 .0029907227 .44898988 .0029907227 .5009918 .0009918213 .5349884 0V.0309906C.46798707 .0309906 .45700074 .0309906 .45700074 .076034549V.2602234C.45700074 .36431886 .5279999 .42037965 .59199526 .42037965 .6549988 .42037965 .66600039 .36631776 .66600039 .30926515V.076034549C.66600039 .0309906 .6549988 .0309906 .58799746 .0309906V0C.6230011 .0009918213 .673996 .0029907227 .70098879 .0029907227 .72698977 .0029907227 .7789917 .0009918213 .8129883 0V.0309906C.7609863 .0309906 .73599246 .0309906 .7350006 .061019899V.25221253C.7350006 .3383026 .7350006 .36932374 .70399478 .405365 .6899872 .42237855 .6569977 .4423828 .598999 .4423828 .5149994 .4423828 .47099305 .38233949 .45399476 .34429933 .43998719 .43138124 .3659973 .4423828 .32099916 .4423828 .24798584 .4423828 .20098877 .39935304 .17298889 .33729554V.4423828L.03199768 .43138124V.40037538C.101989749 .4003601 .10998535 .39335633 .10998535 .34429933Z"/>
<path id="font_2_15" d="M.20799256 .19424439C.22999573 .19024658 .31199647 .17424011 .31199647 .102249149 .31199647 .051254274 .2769928 .011245728 .19898987 .011245728 .114990238 .011245728 .07899475 .06825256 .05999756 .15324402 .056991579 .1662445 .055999757 .17024231 .04598999 .17024231 .032989503 .17024231 .032989503 .16323853 .032989503 .14524842V.013244629C.032989503-.003753662 .032989503-.0107421879 .04399109-.0107421879 .04899597-.0107421879 .049987794-.009750366 .068984989 .009246826 .070999149 .011245728 .070999149 .013244629 .08898926 .03224182 .1329956-.009750366 .17799378-.0107421879 .19898987-.0107421879 .31399537-.0107421879 .3600006 .056243898 .3600006 .12825012 .3600006 .1812439 .32998658 .21124268 .31799317 .22323609 .2849884 .25523377 .24598694 .26324464 .20399475 .27124024 .147995 .28224183 .08099365 .2952423 .08099365 .35324098 .08099365 .38822938 .10699463 .42922975 .19299317 .42922975 .30299378 .42922975 .30799867 .3392334 .30999757 .3082428 .31098939 .2992401 .31999208 .2992401 .32199098 .2992401 .33499146 .2992401 .33499146 .304245 .33499146 .3232422V.4242401C.33499146 .4412384 .33499146 .4482422 .32398988 .4482422 .31900025 .4482422 .31698609 .4482422 .3039856 .43623353 .30099488 .43223573 .29100038 .42323304 .2869873 .42022706 .24899292 .4482422 .20799256 .4482422 .19299317 .4482422 .070999149 .4482422 .032989503 .38124085 .032989503 .3252411 .032989503 .29023744 .04899597 .26223756 .07598877 .24023438 .10798645 .21424866 .13598633 .2082367 .20799256 .19424439Z"/>
<path id="font_2_3" d="M.19198609 .052993776C.19198609 .08198547 .16799927 .10598755 .13899231 .10598755 .10998535 .10598755 .085998538 .08198547 .085998538 .052993776 .085998538 .023986817 .10998535 0 .13899231 0 .16799927 0 .19198609 .023986817 .19198609 .052993776Z"/>
<path id="font_2_5" d="M.58200076 .2578125H.5569916C.54599 .15588379 .5319977 .0309906 .35598756 .0309906H.27398683C.22698975 .0309906 .22499085 .037979127 .22499085 .07095337V.6036377C.22499085 .637619 .22499085 .6516113 .31999208 .6516113H.35299684V.6826172C.31698609 .6796112 .22599793 .6796112 .18499756 .6796112 .1459961 .6796112 .067993167 .6796112 .032989503 .6826172V.6516113H.056991579C.13398743 .6516113 .13598633 .64060977 .13598633 .6046295V.07795715C.13598633 .04197693 .13398743 .0309906 .056991579 .0309906H.032989503V0H.55400088L.58200076 .2578125Z"/>
<path id="font_2_12" d="M.47099305 .21424866C.47099305 .34223939 .37098695 .4482422 .25 .4482422 .125 .4482422 .027999878 .3392334 .027999878 .21424866 .027999878 .085250858 .13198853-.0107421879 .24899292-.0107421879 .36999513-.0107421879 .47099305 .087249759 .47099305 .21424866M.25 .014251709C.20698548 .014251709 .16299439 .035247804 .13598633 .08125305 .11099243 .12524414 .11099243 .18624878 .11099243 .22224427 .11099243 .26124574 .11099243 .31523133 .1349945 .35923768 .1619873 .40522767 .20899964 .426239 .24899292 .426239 .29299928 .426239 .33599855 .40423585 .3619995 .36123658 .3880005 .3182373 .3880005 .26023866 .3880005 .22224427 .3880005 .18624878 .3880005 .13224793 .3659973 .08824158 .34399415 .04324341 .2999878 .014251709 .25 .014251709Z"/>
<path id="font_2_14" d="M.16699219 .3323059V.4423828L.027999878 .43138124V.40037538C.09799194 .40037538 .10598755 .39337159 .10598755 .34431459V.076034549C.10598755 .0309906 .09498596 .0309906 .027999878 .0309906V0C.066986087 .0009918213 .11399841 .0029907227 .14199829 .0029907227 .18199158 .0029907227 .22898865 .0029907227 .2689972 0V.0309906H.24798584C.17399597 .0309906 .17199707 .042007448 .17199707 .07803345V.232193C.17199707 .33128358 .21398926 .42037965 .2899933 .42037965 .29699708 .42037965 .29899598 .42037965 .30099488 .41937257 .2979889 .41838075 .27799989 .4063568 .27799989 .38034059 .27799989 .35231019 .29899598 .33729554 .32099916 .33729554 .33898927 .33729554 .3639984 .3493042 .3639984 .3813324 .3639984 .41337586 .33299256 .4423828 .2899933 .4423828 .21699524 .4423828 .18099976 .37535096 .16699219 .3323059Z"/>
<path id="font_2_1" d="M.32998658 .40034486C.37599183 .40034486 .3829956 .38734437 .3829956 .34629823V.076034549C.3829956 .0309906 .37199403 .0309906 .30499269 .0309906V0C.33799745 .0009918213 .3909912 .0029907227 .41600038 .0029907227 .44099427 .0029907227 .48999024 .0009918213 .5269928 0V.0309906C.45999146 .0309906 .44898988 .0309906 .44898988 .076034549V.44335938L.32299806 .4343567C.30699159 .4333496 .30599977 .4323578 .30499269 .4323578 .30299378 .43066407 .30099488 .43066407 .2869873 .43066407H.16899109V.54437258C.16899109 .6434479 .25498963 .68307498 .31698609 .68307498 .34700013 .68307498 .3829956 .673172 .40299989 .65042117 .3619995 .6484375 .35598756 .6204529 .35598756 .6044464 .35598756 .5714569 .38198854 .5584564 .40098573 .5584564 .42399598 .5584564 .44699098 .57444766 .44699098 .6044464 .44699098 .6632843 .3919983 .7050781 .31799317 .7050781 .22499085 .7050781 .10598755 .65437319 .10598755 .5453644V.43066407H.026992798V.3996582H.10598755V.07595825C.10598755 .0309906 .09498596 .0309906 .027999878 .0309906V0C.06098938 .0009918213 .11399841 .0029907227 .13899231 .0029907227 .1639862 .0029907227 .21299744 .0009918213 .25 0V.0309906C.18299866 .0309906 .17199707 .0309906 .17199707 .07595825V.3996582L.32998658 .40034486Z"/>
<path id="font_2_2" d="M.20298767 .0009918213C.20298767 .06498718 .1789856 .10598755 .13899231 .10598755 .10398865 .10598755 .085998538 .07899475 .085998538 .052993776 .085998538 .026992798 .102996829 0 .13899231 0 .15499878 0 .16699219 .005996704 .1769867 .01399231L.1789856 .015991211C.17999268 .015991211 .18099976 .01499939 .18099976 .0009918213 .18099976-.06314087 .15299988-.12426758 .10899353-.17137146 .102996829-.17736817 .101989749-.17835999 .101989749-.18237305 .101989749-.18936157 .10699463-.19335938 .11199951-.19335938 .12399292-.19335938 .20298767-.11424255 .20298767 .0009918213Z"/>
<path id="font_2_17" d="M.3909912 .07926941V-.0107421879L.5349884 .00024414063V.03125C.46499635 .03125 .45700074 .038253786 .45700074 .087265018V.4423828L.30999757 .43138124V.40037538C.37998963 .40037538 .3880005 .39337159 .3880005 .34436036V.16630554C.3880005 .07926941 .33999635 .011245728 .2669983 .011245728 .18299866 .011245728 .1789856 .058258058 .1789856 .11027527V.4423828L.03199768 .43138124V.40037538C.10998535 .40037538 .10998535 .39736939 .10998535 .3083496V.15829468C.10998535 .08027649 .10998535-.0107421879 .2619934-.0107421879 .31799317-.0107421879 .3619995 .01725769 .3909912 .07926941Z"/>
<path id="font_2_13" d="M.17199707 .37635804V.4423828L.027999878 .43138124V.40037538C.09899902 .40037538 .10598755 .3943634 .10598755 .35035707V-.11816406C.10598755-.16334534 .09498596-.16334534 .027999878-.16334534V-.19433594C.06199646-.19334412 .11399841-.19134522 .13999939-.19134522 .16699219-.19134522 .21798706-.19334412 .25299073-.19433594V-.16334534C.18598938-.16334534 .1749878-.16334534 .1749878-.11816406V.05026245 .059265138C.17999268 .043258668 .22200012-.0107421879 .2979889-.0107421879 .4169922-.0107421879 .5209961 .08728027 .5209961 .2163086 .5209961 .34335328 .42399598 .4423828 .31199647 .4423828 .23399353 .4423828 .19198609 .39837647 .17199707 .37635804M.1749878 .11428833V.33735658C.20399475 .3883667 .25299073 .41737367 .3039856 .41737367 .3769989 .41737367 .43798829 .3293457 .43798829 .2163086 .43798829 .09527588 .36799623 .011245728 .2939911 .011245728 .2539978 .011245728 .21598816 .03125 .18899536 .072265628 .1749878 .09327698 .1749878 .0942688 .1749878 .11428833Z"/>
</defs>
<g clip-path="url(#clip_1)">
<path transform="matrix(1,0,0,-1,11.339,121.889)" d="M0-85.04042V119.05606H306.14604V-85.04042ZM306.14604 119.05606" fill="#c7eafb"/>
<path transform="matrix(1,0,0,-1,11.339,121.889)" d="M-8.50455-85.04042V119.05606H0V-85.04042ZM0 119.05606" fill="#b2b3b2"/>
<path transform="matrix(1,0,0,-1,11.339,121.889)" d="M-4.25215 36.5655V48.46957H0V36.5655ZM0 48.46957" fill="#800000"/>
<path transform="matrix(1,0,0,-1,11.339,121.889)" stroke-width=".3985" stroke-linecap="butt" stroke-miterlimit="10" stroke-linejoin="miter" fill="none" stroke="#800000" d="M-4.25215 36.5655V48.46957H0V36.5655ZM0 48.46957"/>
<path transform="matrix(1,0,0,-1,11.339,121.889)" stroke-width=".3985" stroke-linecap="butt" stroke-miterlimit="10" stroke-linejoin="miter" fill="none" stroke="#800000" d="M6.51398 37.05272C9.16658 40.2139 9.16658 44.82483 6.51398 47.98601"/>
<path transform="matrix(1,0,0,-1,11.339,121.889)" stroke-width=".3985" stroke-linecap="butt" stroke-miterlimit="10" stroke-linejoin="miter" fill="none" stroke="#800000" d="M58.63007-6.67816C82.50238 21.771 82.50238 63.26756 58.63007 91.71672"/>
<path transform="matrix(1,0,0,-1,11.339,121.889)" stroke-width=".3985" stroke-linecap="butt" stroke-miterlimit="10" stroke-linejoin="miter" fill="none" stroke="#800000" d="M110.74484-50.40906C155.83686 3.3281 155.83686 81.71027 110.74484 135.44744"/>
<path transform="matrix(1,0,0,-1,11.339,121.889)" stroke-width=".3985" stroke-linecap="butt" stroke-miterlimit="10" stroke-linejoin="miter" fill="none" stroke="#800000" d="M162.86089-94.13995C229.17258-15.1148 229.17258 100.15294 162.86089 179.17809"/>
<path transform="matrix(1,0,0,-1,11.339,121.889)" stroke-width=".3985" stroke-linecap="butt" stroke-miterlimit="10" stroke-linejoin="miter" fill="none" stroke="#800000" d="M214.9757-137.87084C302.5071-33.5577 302.5071 118.59561 214.9757 222.90877"/>
<path transform="matrix(1,0,0,-1,11.339,121.889)" d="M-4.25215 19.55818V31.46225H0V19.55818ZM0 31.46225" fill="#800000"/>
<path transform="matrix(1,0,0,-1,11.339,121.889)" stroke-width=".3985" stroke-linecap="butt" stroke-miterlimit="10" stroke-linejoin="miter" fill="none" stroke="#800000" d="M-4.25215 19.55818V31.46225H0V19.55818ZM0 31.46225"/>
<path transform="matrix(1,0,0,-1,11.339,121.889)" stroke-width=".3985" stroke-linecap="butt" stroke-miterlimit="10" stroke-linejoin="miter" fill="none" stroke="#800000" d="M10.42241 16.76474C14.66643 21.82242 14.66643 29.19966 10.42241 34.25734"/>
<path transform="matrix(1,0,0,-1,11.339,121.889)" stroke-width=".3985" stroke-linecap="butt" stroke-miterlimit="10" stroke-linejoin="miter" fill="none" stroke="#800000" d="M62.53845-26.96614C88.00217 3.37952 88.00217 47.64238 62.53845 77.98805"/>
<path transform="matrix(1,0,0,-1,11.339,121.889)" stroke-width=".3985" stroke-linecap="butt" stroke-miterlimit="10" stroke-linejoin="miter" fill="none" stroke="#800000" d="M114.65327-70.69704C161.33669-15.06335 161.33669 66.08508 114.65327 121.71877"/>
<path transform="matrix(1,0,0,-1,11.339,121.889)" stroke-width=".3985" stroke-linecap="butt" stroke-miterlimit="10" stroke-linejoin="miter" fill="none" stroke="#800000" d="M166.76932-114.42793C234.67243-33.50624 234.67243 84.52777 166.76932 165.44945"/>
<path transform="matrix(1,0,0,-1,11.339,121.889)" stroke-width=".3985" stroke-linecap="butt" stroke-miterlimit="10" stroke-linejoin="miter" fill="none" stroke="#800000" d="M218.88408-158.15883C308.0069-51.94916 308.0069 102.97049 218.88408 209.18016"/>
<path transform="matrix(1,0,0,-1,11.339,121.889)" d="M-4.25215 2.55092V14.45497H0V2.55092ZM0 14.45497" fill="#800000"/>
<path transform="matrix(1,0,0,-1,11.339,121.889)" stroke-width=".3985" stroke-linecap="butt" stroke-miterlimit="10" stroke-linejoin="miter" fill="none" stroke="#800000" d="M-4.25215 2.55092V14.45497H0V2.55092ZM0 14.45497"/>
<path transform="matrix(1,0,0,-1,11.339,121.889)" stroke-width=".3985" stroke-linecap="butt" stroke-miterlimit="10" stroke-linejoin="miter" fill="none" stroke="#800000" d="M14.33084-3.52187C20.16626 3.43231 20.16626 13.57587 14.33084 20.53004"/>
<path transform="matrix(1,0,0,-1,11.339,121.889)" stroke-width=".3985" stroke-linecap="butt" stroke-miterlimit="10" stroke-linejoin="miter" fill="none" stroke="#800000" d="M66.44688-47.25276C93.502-15.01056 93.502 32.01857 66.44688 64.26076"/>
<path transform="matrix(1,0,0,-1,11.339,121.889)" stroke-width=".3985" stroke-linecap="butt" stroke-miterlimit="10" stroke-linejoin="miter" fill="none" stroke="#800000" d="M118.56165-90.98366C166.83647-33.45346 166.83647 50.46126 118.56165 107.99144"/>
<path transform="matrix(1,0,0,-1,11.339,121.889)" stroke-width=".3985" stroke-linecap="butt" stroke-miterlimit="10" stroke-linejoin="miter" fill="none" stroke="#800000" d="M170.67774-134.71454C240.17226-51.89635 240.17226 68.90396 170.67774 151.72216"/>
<path transform="matrix(1,0,0,-1,11.339,121.889)" stroke-width=".3985" stroke-linecap="butt" stroke-miterlimit="10" stroke-linejoin="miter" fill="none" stroke="#800000" d="M222.79251-178.44544C313.50675-70.33925 313.50675 87.34666 222.79251 195.45287"/>
<path transform="matrix(1,0,0,-1,11.339,121.889)" d="M-4.25215-14.4563V-2.55223H0V-14.4563ZM0-2.55223" fill="#800000"/>
<path transform="matrix(1,0,0,-1,11.339,121.889)" stroke-width=".3985" stroke-linecap="butt" stroke-miterlimit="10" stroke-linejoin="miter" fill="none" stroke="#800000" d="M-4.25215-14.4563V-2.55223H0V-14.4563ZM0-2.55223"/>
<path transform="matrix(1,0,0,-1,11.339,121.889)" stroke-width=".3985" stroke-linecap="butt" stroke-miterlimit="10" stroke-linejoin="miter" fill="none" stroke="#800000" d="M18.23921-23.80975C25.66605-14.95906 25.66605-2.04921 18.23921 6.80148"/>
<path transform="matrix(1,0,0,-1,11.339,121.889)" stroke-width=".3985" stroke-linecap="butt" stroke-miterlimit="10" stroke-linejoin="miter" fill="none" stroke="#800000" d="M70.35532-67.54065C99.00183-33.40195 99.00183 16.3935 70.35532 50.5322"/>
<path transform="matrix(1,0,0,-1,11.339,121.889)" stroke-width=".3985" stroke-linecap="butt" stroke-miterlimit="10" stroke-linejoin="miter" fill="none" stroke="#800000" d="M122.47008-111.2715C172.3363-51.84479 172.3363 34.83621 122.47008 94.26291"/>
<path transform="matrix(1,0,0,-1,11.339,121.889)" stroke-width=".3985" stroke-linecap="butt" stroke-miterlimit="10" stroke-linejoin="miter" fill="none" stroke="#800000" d="M174.58612-155.0024C245.67206-70.28769 245.67206 53.27893 174.58612 137.99362"/>
<path transform="matrix(1,0,0,-1,11.339,121.889)" stroke-width=".3985" stroke-linecap="butt" stroke-miterlimit="10" stroke-linejoin="miter" fill="none" stroke="#800000" d="M226.70095-198.73201C319.0066-88.72931 319.0066 71.72292 226.70095 181.72562"/>
<path transform="matrix(1,0,0,-1,11.339,121.889)" d="M-4.25215-31.46358V-19.55951H0V-31.46358ZM0-19.55951" fill="#800000"/>
<path transform="matrix(1,0,0,-1,11.339,121.889)" stroke-width=".3985" stroke-linecap="butt" stroke-miterlimit="10" stroke-linejoin="miter" fill="none" stroke="#800000" d="M-4.25215-31.46358V-19.55951H0V-31.46358ZM0-19.55951"/>
<path transform="matrix(1,0,0,-1,11.339,121.889)" stroke-width=".3985" stroke-linecap="butt" stroke-miterlimit="10" stroke-linejoin="miter" fill="none" stroke="#800000" d="M22.14764-44.09637C31.1659-33.34914 31.1659-17.67297 22.14764-6.92574"/>
<path transform="matrix(1,0,0,-1,11.339,121.889)" stroke-width=".3985" stroke-linecap="butt" stroke-miterlimit="10" stroke-linejoin="miter" fill="none" stroke="#800000" d="M74.26369-87.82727C104.50162-51.79205 104.50162 .76965 74.26369 36.80487"/>
<path transform="matrix(1,0,0,-1,11.339,121.889)" stroke-width=".3985" stroke-linecap="butt" stroke-miterlimit="10" stroke-linejoin="miter" fill="none" stroke="#800000" d="M126.37851-131.55815C177.83614-70.23494 177.83614 19.21236 126.37851 80.53557"/>
<path transform="matrix(1,0,0,-1,11.339,121.889)" stroke-width=".3985" stroke-linecap="butt" stroke-miterlimit="10" stroke-linejoin="miter" fill="none" stroke="#800000" d="M178.49456-175.289C251.17189-88.67778 251.17189 37.6551 178.49456 124.26633"/>
<path transform="matrix(1,0,0,-1,11.339,121.889)" stroke-width=".3985" stroke-linecap="butt" stroke-miterlimit="10" stroke-linejoin="miter" fill="none" stroke="#800000" d="M230.61064-219.0199C324.5077-107.12068 324.5077 56.09782 230.61064 167.99704"/>
<path transform="matrix(1,0,0,-1,11.339,121.889)" d="M-4.25215-48.47084V-36.56679H0V-48.47084ZM0-36.56679" fill="#800000"/>
<path transform="matrix(1,0,0,-1,11.339,121.889)" stroke-width=".3985" stroke-linecap="butt" stroke-miterlimit="10" stroke-linejoin="miter" fill="none" stroke="#800000" d="M-4.25215-48.47084V-36.56679H0V-48.47084ZM0-36.56679"/>
<path transform="matrix(1,0,0,-1,11.339,121.889)" stroke-width=".3985" stroke-linecap="butt" stroke-miterlimit="10" stroke-linejoin="miter" fill="none" stroke="#800000" d="M26.05608-64.38426C36.66573-51.74052 36.66573-33.29808 26.05608-20.65434"/>
<path transform="matrix(1,0,0,-1,11.339,121.889)" stroke-width=".3985" stroke-linecap="butt" stroke-miterlimit="10" stroke-linejoin="miter" fill="none" stroke="#800000" d="M78.17212-108.11516C110.00146-70.18341 110.00146-14.85538 78.17212 23.07635"/>
<path transform="matrix(1,0,0,-1,11.339,121.889)" stroke-width=".3985" stroke-linecap="butt" stroke-miterlimit="10" stroke-linejoin="miter" fill="none" stroke="#800000" d="M130.28821-151.84606C183.33727-88.62631 183.33727 3.58733 130.28821 66.80707"/>
<path transform="matrix(1,0,0,-1,11.339,121.889)" stroke-width=".3985" stroke-linecap="butt" stroke-miterlimit="10" stroke-linejoin="miter" fill="none" stroke="#800000" d="M182.40299-195.57567C256.67173-107.06793 256.67173 22.03127 182.40299 110.53899"/>
<path transform="matrix(1,0,0,-1,11.339,121.889)" stroke-width=".3985" stroke-linecap="butt" stroke-miterlimit="10" stroke-linejoin="miter" fill="none" stroke="#800000" d="M234.51903-239.3065C330.00749-125.51077 330.00749 40.47401 234.51903 154.26975"/>
<path transform="matrix(1,0,0,-1,11.339,121.889)" d="M6.33601-84.84117H297.4422V-69.34425H6.33601Z" fill="#c7eafb"/>
<use data-text="D" xlink:href="#font_2_4" transform="matrix(9.9626,0,0,-9.9626,20.995999,201.47101)"/>
<use data-text="e" xlink:href="#font_2_8" transform="matrix(9.9626,0,0,-9.9626,28.607426,201.47101)"/>
<use data-text="l" xlink:href="#font_2_9" transform="matrix(9.9626,0,0,-9.9626,33.030824,201.47101)"/>
<use data-text="a" xlink:href="#font_2_6" transform="matrix(9.9626,0,0,-9.9626,35.800424,201.47101)"/>
<use data-text="y" xlink:href="#font_2_19" transform="matrix(9.9626,0,0,-9.9626,40.50277,201.47101)"/>
<use data-text="b" xlink:href="#font_2_7" transform="matrix(9.9626,0,0,-9.9626,49.09053,201.47101)"/>
<use data-text="e" xlink:href="#font_2_8" transform="matrix(9.9626,0,0,-9.9626,54.898729,201.47101)"/>
<use data-text="t" xlink:href="#font_2_16" transform="matrix(9.9626,0,0,-9.9626,59.32212,201.47101)"/>
<use data-text="w" xlink:href="#font_2_18" transform="matrix(9.9626,0,0,-9.9626,62.92858,201.47101)"/>
<use data-text="e" xlink:href="#font_2_8" transform="matrix(9.9626,0,0,-9.9626,69.84263,201.47101)"/>
<use data-text="e" xlink:href="#font_2_8" transform="matrix(9.9626,0,0,-9.9626,74.26602,201.47101)"/>
<use data-text="n" xlink:href="#font_2_11" transform="matrix(9.9626,0,0,-9.9626,78.689418,201.47101)"/>
<use data-text="e" xlink:href="#font_2_8" transform="matrix(9.9626,0,0,-9.9626,87.546169,201.47101)"/>
<use data-text="l" xlink:href="#font_2_9" transform="matrix(9.9626,0,0,-9.9626,91.96956,201.47101)"/>
<use data-text="e" xlink:href="#font_2_8" transform="matrix(9.9626,0,0,-9.9626,94.73916,201.47101)"/>
<use data-text="m" xlink:href="#font_2_10" transform="matrix(9.9626,0,0,-9.9626,99.16255,201.47101)"/>
<use data-text="e" xlink:href="#font_2_8" transform="matrix(9.9626,0,0,-9.9626,107.461399,201.47101)"/>
<use data-text="n" xlink:href="#font_2_11" transform="matrix(9.9626,0,0,-9.9626,111.88479,201.47101)"/>
<use data-text="t" xlink:href="#font_2_16" transform="matrix(9.9626,0,0,-9.9626,117.14504,201.47101)"/>
<use data-text="s" xlink:href="#font_2_15" transform="matrix(9.9626,0,0,-9.9626,121.02049,201.47101)"/>
<use data-text="." xlink:href="#font_2_3" transform="matrix(9.9626,0,0,-9.9626,124.95572,201.47101)"/>
<use data-text="L" xlink:href="#font_2_5" transform="matrix(9.9626,0,0,-9.9626,132.14871,201.47101)"/>
<use data-text="o" xlink:href="#font_2_12" transform="matrix(9.9626,0,0,-9.9626,138.37534,201.47101)"/>
<use data-text="w" xlink:href="#font_2_18" transform="matrix(9.9626,0,0,-9.9626,143.07769,201.47101)"/>
<use data-text="e" xlink:href="#font_2_8" transform="matrix(9.9626,0,0,-9.9626,149.99173,201.47101)"/>
<use data-text="r" xlink:href="#font_2_14" transform="matrix(9.9626,0,0,-9.9626,154.41513,201.47101)"/>
<use data-text="e" xlink:href="#font_2_8" transform="matrix(9.9626,0,0,-9.9626,161.64798,201.47101)"/>
<use data-text="l" xlink:href="#font_2_9" transform="matrix(9.9626,0,0,-9.9626,166.07138,201.47101)"/>
<use data-text="e" xlink:href="#font_2_8" transform="matrix(9.9626,0,0,-9.9626,168.84099,201.47101)"/>
<use data-text="m" xlink:href="#font_2_10" transform="matrix(9.9626,0,0,-9.9626,173.26439,201.47101)"/>
<use data-text="e" xlink:href="#font_2_8" transform="matrix(9.9626,0,0,-9.9626,181.56324,201.47101)"/>
<use data-text="n" xlink:href="#font_2_11" transform="matrix(9.9626,0,0,-9.9626,185.98664,201.47101)"/>
<use data-text="t" xlink:href="#font_2_16" transform="matrix(9.9626,0,0,-9.9626,191.24689,201.47101)"/>
<use data-text="f" xlink:href="#font_2_1" transform="matrix(9.9626,0,0,-9.9626,198.4399,201.47101)"/>
<use data-text="r" xlink:href="#font_2_14" transform="matrix(9.9626,0,0,-9.9626,203.9791,201.47101)"/>
<use data-text="s" xlink:href="#font_2_15" transform="matrix(9.9626,0,0,-9.9626,207.88443,201.47101)"/>
<use data-text="t" xlink:href="#font_2_16" transform="matrix(9.9626,0,0,-9.9626,211.8097,201.47101)"/>
<use data-text="," xlink:href="#font_2_2" transform="matrix(9.9626,0,0,-9.9626,215.68515,201.47101)"/>
<use data-text="u" xlink:href="#font_2_17" transform="matrix(9.9626,0,0,-9.9626,221.78227,201.47101)"/>
<use data-text="p" xlink:href="#font_2_13" transform="matrix(9.9626,0,0,-9.9626,227.32147,201.47101)"/>
<use data-text="p" xlink:href="#font_2_13" transform="matrix(9.9626,0,0,-9.9626,232.86067,201.47101)"/>
<use data-text="e" xlink:href="#font_2_8" transform="matrix(9.9626,0,0,-9.9626,238.66887,201.47101)"/>
<use data-text="r" xlink:href="#font_2_14" transform="matrix(9.9626,0,0,-9.9626,243.09227,201.47101)"/>
<use data-text="e" xlink:href="#font_2_8" transform="matrix(9.9626,0,0,-9.9626,250.32512,201.47101)"/>
<use data-text="l" xlink:href="#font_2_9" transform="matrix(9.9626,0,0,-9.9626,254.74852,201.47101)"/>
<use data-text="e" xlink:href="#font_2_8" transform="matrix(9.9626,0,0,-9.9626,257.51814,201.47101)"/>
<use data-text="m" xlink:href="#font_2_10" transform="matrix(9.9626,0,0,-9.9626,261.94154,201.47101)"/>
<use data-text="e" xlink:href="#font_2_8" transform="matrix(9.9626,0,0,-9.9626,270.2404,201.47101)"/>
<use data-text="n" xlink:href="#font_2_11" transform="matrix(9.9626,0,0,-9.9626,274.6638,201.47101)"/>
<use data-text="t" xlink:href="#font_2_16" transform="matrix(9.9626,0,0,-9.9626,279.92405,201.47101)"/>
<use data-text="l" xlink:href="#font_2_9" transform="matrix(9.9626,0,0,-9.9626,287.11705,201.47101)"/>
<use data-text="a" xlink:href="#font_2_6" transform="matrix(9.9626,0,0,-9.9626,289.88664,201.47101)"/>
<use data-text="s" xlink:href="#font_2_15" transform="matrix(9.9626,0,0,-9.9626,294.86793,201.47101)"/>
<use data-text="t" xlink:href="#font_2_16" transform="matrix(9.9626,0,0,-9.9626,298.79319,201.47101)"/>
<use data-text="." xlink:href="#font_2_3" transform="matrix(9.9626,0,0,-9.9626,302.66865,201.47101)"/>
</g>
</svg>
